<svg id="Layer_1" data-name="Layer 1" xmlns="http://www.w3.org/2000/svg" viewBox="0 0 2600 995.39"><defs><style>.cls-1{fill:#2b252c;}.cls-2{fill:#64b5e3;}</style></defs><title>seldo-</title><path class="cls-1" d="M1738.49,550.67a18.08,18.08,0,0,1-17.62,13,21,21,0,0,1-7.56-1.37c-3.13,3-9.55,4.31-15.62-.13a20.65,20.65,0,0,1-7.83,1.5,18.09,18.09,0,0,1-17.62-13,2.51,2.51,0,0,1,4.84-1.32,13.14,13.14,0,0,0,12.78,9.29c7.38,0,13-4.69,13-10.91v-4.47c-3.62-.74-6.42-3.24-8-7.25a15.76,15.76,0,0,1-9.35.71,6.63,6.63,0,0,1-4.69-8,2.51,2.51,0,1,1,4.87,1.2,1.62,1.62,0,0,0,1.07,2,10.52,10.52,0,0,0,6.56-.66,4.27,4.27,0,0,1,3.53-.13,4.39,4.39,0,0,1,2.49,2.59c1.71,4.81,4.83,4.81,5.86,4.81h.49c1,0,4.15,0,5.86-4.81a4.39,4.39,0,0,1,2.49-2.59,4.3,4.3,0,0,1,3.53.13,10.52,10.52,0,0,0,6.56.66,1.62,1.62,0,0,0,1.07-2,2.51,2.51,0,1,1,4.87-1.2,6.63,6.63,0,0,1-4.7,8A15.73,15.73,0,0,1,1716,536c-1.63,4-4.45,6.55-8.12,7.26v4.46c0,6.22,5.61,10.91,13,10.91a13.1,13.1,0,0,0,12.77-9.29,2.51,2.51,0,0,1,4.85,1.32Zm4.93-55.23a8.78,8.78,0,0,0-8.73,7.88.82.82,0,0,0,.81.9h15.84a.82.82,0,0,0,.82-.9A8.78,8.78,0,0,0,1743.42,495.44Zm-24,76.26a28.11,28.11,0,0,1-13.84,3.65h-.49a28.11,28.11,0,0,1-13.84-3.65,2.51,2.51,0,0,0-2.48,4.36,33,33,0,0,0,16.32,4.31h.49a33,33,0,0,0,16.32-4.31,2.51,2.51,0,1,0-2.48-4.36Zm-52.14-76.26a8.78,8.78,0,0,0-8.74,7.88.82.82,0,0,0,.82.9h15.84a.83.83,0,0,0,.82-.9A8.79,8.79,0,0,0,1667.31,495.44Z"/><path class="cls-2" d="M493.16,311.11a3.45,3.45,0,0,1,1,2.44v70.34a3.43,3.43,0,0,1-1,2.44l-.71.72a3.5,3.5,0,0,1-2.45,1h0a86.22,86.22,0,0,0-86.22,86.23v60.13A164.35,164.35,0,0,1,239.43,698.77H182.15a3.46,3.46,0,0,1-2.45-1l-.71-.71a3.46,3.46,0,0,1-1-2.45V622.24a5.15,5.15,0,0,1,5.15-5.15h48.06a86.23,86.23,0,0,0,86.23-86.22V473.73A164.35,164.35,0,0,1,481.77,309.38H490a3.5,3.5,0,0,1,2.45,1ZM810.47,618.46a4.72,4.72,0,0,0-3.31-1.37H624.82a4.67,4.67,0,0,1-4.68-4.67V536.87a4.67,4.67,0,0,1,4.68-4.67H752.39a4.68,4.68,0,0,0,3.31-1.37h0a4.72,4.72,0,0,0,1.37-3.31V460.2a4.72,4.72,0,0,0-1.37-3.31h0a4.68,4.68,0,0,0-3.31-1.37H624.82a4.67,4.67,0,0,1-4.68-4.67V391.73a4.67,4.67,0,0,1,4.68-4.67H801.68a4.68,4.68,0,0,0,3.31-1.37h0a4.68,4.68,0,0,0,1.37-3.31V315.06a4.68,4.68,0,0,0-1.37-3.31h0a4.68,4.68,0,0,0-3.31-1.37H548.14a4.68,4.68,0,0,0-3.31,1.37h0a4.72,4.72,0,0,0-1.37,3.31v374a4.7,4.7,0,0,0,1.37,3.3h0a4.68,4.68,0,0,0,3.31,1.37h259a4.68,4.68,0,0,0,3.31-1.37h0a4.7,4.7,0,0,0,1.37-3.3V621.77a4.72,4.72,0,0,0-1.37-3.31Zm273.84,0a4.64,4.64,0,0,0-3.3-1.37H942.48a4.68,4.68,0,0,1-4.68-4.67V315.06a4.68,4.68,0,0,0-1.37-3.31h0a4.64,4.64,0,0,0-3.3-1.37H865.8a4.64,4.64,0,0,0-3.3,1.37h0a4.71,4.71,0,0,0-1.36,3.31v374a4.65,4.65,0,0,0,1.37,3.3h0a4.64,4.64,0,0,0,3.3,1.37H1081a4.64,4.64,0,0,0,3.3-1.37h0a4.65,4.65,0,0,0,1.37-3.3V621.77a4.68,4.68,0,0,0-1.37-3.31Zm384.77-116.38c0,105.7-84.9,191.69-202.65,191.69H1137.72L1135,691V313.12l2.74-2.74h128.71C1384.18,310.38,1469.08,396.37,1469.08,502.08Zm-82.16,0c0-68.47-49.29-115-120.49-115h-54.77v230h54.77C1337.63,617.09,1386.92,570.54,1386.92,502.08Zm513,2.14c0,93.52-66,171.62-153.89,190.36.44-1.61.86-3.22,1.25-4.81a199.9,199.9,0,0,0,5.61-46.29l.47-67.59,9.72-11.72a20.71,20.71,0,0,0,4.64-15.33c-.45-4.33-2.42-23.24-3.91-37.26a22.75,22.75,0,0,1-20.42,12.28,24.86,24.86,0,0,1-24.3-19.77l-.22-1.71c-1.37-5.59-7.21-9.24-13.54-9.26s-12.11,3.64-13.49,9.23l-.28,1.74a24.86,24.86,0,0,1-24.29,19.77A22.85,22.85,0,0,1,1647.13,512c-1.54,13.92-3.71,32.5-4.16,36.86a20.71,20.71,0,0,0,4.64,15.33l9.72,11.72s-.91,60.16-24.69,108.94a194.7,194.7,0,0,1-122-180.61c0-107.5,87.15-194.64,194.65-194.64a194.29,194.29,0,0,1,66,11.47,214.12,214.12,0,0,1,64.34,38.6A194.11,194.11,0,0,1,1900,504.22Zm-168.17-143s.07,51.52.09,61.38a1.34,1.34,0,0,0,1.56,1.32c2.27-.38,6.49-.68,9.09,1.7,2.77,2.55,4.69,5.67,4.56,9.44a1.34,1.34,0,0,0,1.22,1.41c1.84.16,5.11.69,7,2.42a.67.67,0,0,0,1.07-.16,41.36,41.36,0,0,0,4.73-18.26c0-33.25-22.86-55.1-28.2-59.76A.67.67,0,0,0,1731.79,361.18Zm-74.88,56a.67.67,0,0,0,1.11.54,11.47,11.47,0,0,1,4.25-2.36,13.07,13.07,0,0,1,9.59,1.25.67.67,0,0,0,.91-.28,11.74,11.74,0,0,1,8.57-6.48,11.59,11.59,0,0,1,2.1-.17.68.68,0,0,0,.67-.69V363.16a.7.7,0,0,0-1.07-.58C1677,366.33,1659.77,380.23,1656.91,417.22Zm29.83,81.71c-.06-3.31-2.45-6.21-7.14-8.65a26.69,26.69,0,0,0-24.59,0,11.46,11.46,0,0,0-4.43,3.75h0a8.87,8.87,0,0,0-1.38,5,21.78,21.78,0,0,0,1.06,6.79c2.53,7.8,9.07,12.65,17,12.65a19.48,19.48,0,0,0,19.06-15.62A14.56,14.56,0,0,0,1686.74,498.93Zm41.91-13.41a32.06,32.06,0,0,1,29.55,0,22.23,22.23,0,0,1,2.66,1.65l-.8-25a5.52,5.52,0,0,0-3.5-5,3.93,3.93,0,0,1-2.2-2.18,4.08,4.08,0,0,1,.06-3.18c.95-2.14,1.67-5.29-.27-8.18a6.92,6.92,0,0,0-.7-.88,7.55,7.55,0,0,0-6.12-2.32,4.06,4.06,0,0,1-4.35-4.65,7.09,7.09,0,0,0-2.81-6.93,7.75,7.75,0,0,0-6.63-.89,5.73,5.73,0,0,1-4.1-.38c-1.77-.84-1.58-3.46-1.58-3.69a6.2,6.2,0,0,0-4.54-5.49c-3.11-.93-6.51-.59-8.47.86a4,4,0,0,1-6.1-1.58,7.27,7.27,0,0,0-1.57-2.27,7.76,7.76,0,0,0-11.65.81,4,4,0,0,1-6.3.2,7.83,7.83,0,0,0-5.29-2.65,8.29,8.29,0,0,0-4.54,1,7.56,7.56,0,0,0-3.22,3.82,4,4,0,0,1-6,1.72,7.74,7.74,0,0,0-10.47,1.49,4,4,0,0,1-2.91,1.54,4,4,0,0,1-3.35-1.42,7.82,7.82,0,0,0-5-2.64,7.18,7.18,0,0,0-3.47.42,4,4,0,0,1-5.51-3.08,7.76,7.76,0,0,0-7.87-6.44h-.15a4,4,0,0,1-3.85-3.05c-.55-2.29-.85-6.72,2.74-11.85a8,8,0,0,0-5.55.79c-1.66.82-7.06,4.16-6.8,12.51a3.32,3.32,0,0,1-1.84,3,7.75,7.75,0,0,0-2,12.1,4,4,0,0,1-.14,5.61,7.78,7.78,0,0,0,.64,11.7,4,4,0,0,1,.8,5.48,7.76,7.76,0,0,0-1.44,6.24l.11.48a7.78,7.78,0,0,0,4,4.92,4,4,0,0,1,1.88,5.28,7.75,7.75,0,0,0,5.44,10.86,4,4,0,0,1,3.15,4.62,7.72,7.72,0,0,0,1.67,6.38l.19.21a7.68,7.68,0,0,0,8,2.23c2.43-1.06,3.48-1.37,5.75-.41,3.74,1.59,5,0,8.39-1.76a31.89,31.89,0,0,1,29.54,0c4.34,2.26,6.87,4.82,8.31,7.29a20.07,20.07,0,0,1,14.87-6.39h.21a20.05,20.05,0,0,1,14.87,6.39C1721.78,490.34,1724.31,487.78,1728.65,485.52Zm32.88,13.53a8.94,8.94,0,0,0-1.45-5.13h0a11.57,11.57,0,0,0-4.36-3.64,26.69,26.69,0,0,0-24.59,0c-4.68,2.44-7.08,5.34-7.14,8.65,0,1.15.37,3.94.37,3.94a19.48,19.48,0,0,0,19.07,15.62c8.14,0,14.91-5.22,17.24-13.3A22,22,0,0,0,1761.53,499.05Zm133,157.35a19,19,0,1,0,19,19A19,19,0,0,0,1894.53,656.4Zm152.73-73.52c-9.82-6.79-22.92-11.23-38.23-11.23-38.75,0-65,28-65,62.5s26.25,62.5,65,62.5c15.31,0,28.41-4.45,38.23-11.24a4,4,0,0,0,1.77-3.32V652.94a1.5,1.5,0,0,0-2.21-1.32c-5.89,3.14-22.6,11.28-37.79,11.28-18.75,0-30-12.5-30-28.75s11.25-28.75,30-28.75c14.9,0,30.68,7.48,37.07,10.86a2,2,0,0,0,2.93-1.77V586.2A4,4,0,0,0,2047.26,582.88ZM2197,634.15c0,35-27.5,62.5-62.5,62.5s-62.5-27.5-62.5-62.5,27.5-62.5,62.5-62.5S2197,599.15,2197,634.15Zm-35,0c0-16.25-11.25-28.75-27.5-28.75s-27.5,12.5-27.5,28.75,11.25,28.75,27.5,28.75S2162,650.4,2162,634.15Zm206.24-62.5c-13.75,0-28.75,6.25-40,16.25-8.75-10-22.5-16.25-42.5-16.25-11.25,0-20,3.75-28.75,8.75v-2.87a2.12,2.12,0,0,0-2.13-2.13h-30.73a2.13,2.13,0,0,0-2.14,2.13V690.76a2.15,2.15,0,0,0,2.14,2.14h30.73a2.15,2.15,0,0,0,1.51-.63,2.13,2.13,0,0,0,.62-1.51V618.32a1,1,0,0,1,.3-.72c7.4-7.34,14.85-12.2,25.95-12.2,11.25,0,21.25,7.5,21.25,27.5v57.86a2.15,2.15,0,0,0,2.14,2.14h30.73a2.15,2.15,0,0,0,1.51-.63,2.13,2.13,0,0,0,.62-1.51V618.32a1,1,0,0,1,.3-.72c7.4-7.34,14.85-12.2,25.95-12.2,11.25,0,21.25,7.5,21.25,27.5v57.86a2.15,2.15,0,0,0,2.14,2.14h30.73a2.15,2.15,0,0,0,1.51-.63,2.13,2.13,0,0,0,.62-1.51V626.65C2422,592.9,2405.77,571.65,2368.27,571.65Z"/></svg>