<svg id="Layer_1" data-name="Layer 1" xmlns="http://www.w3.org/2000/svg" viewBox="0 0 995.39 995.39"><defs><style>.cls-1{fill:#2b252c;}.cls-2{fill:#ffc372;}</style></defs><title>seldo-</title><path class="cls-1" d="M561.84,587.62a4.41,4.41,0,0,0-5.4,3.1h0v0l0,.18c0,.16-.14.43-.26.78a31,31,0,0,1-1.26,3,32.81,32.81,0,0,1-6,8.62,28,28,0,0,1-7,5.28,30.66,30.66,0,0,1-14.44,3.31A33.86,33.86,0,0,1,510,607.39a25.17,25.17,0,0,1-10.18-11,22.45,22.45,0,0,1-2.08-9.49V576.19a20.87,20.87,0,0,0,11.77-5.89A28.52,28.52,0,0,0,516,559.7a28.66,28.66,0,0,0,6.19,2.06,35.57,35.57,0,0,0,7.34.79,30.35,30.35,0,0,0,7.29-.87,13,13,0,0,0,7.25-4.91,13.59,13.59,0,0,0,2.26-11.35,4.41,4.41,0,1,0-8.56,2.11,5,5,0,0,1,.13,1.15,4.74,4.74,0,0,1-.93,2.85,4.1,4.1,0,0,1-2.34,1.6,21,21,0,0,1-5.1.6,26,26,0,0,1-5.47-.59,19.78,19.78,0,0,1-4.56-1.53h0a8.29,8.29,0,0,0-3.69-.87,8.51,8.51,0,0,0-8,5.65,22.69,22.69,0,0,1-3.05,5.92,12.89,12.89,0,0,1-5.3,4.3,13.73,13.73,0,0,1-5.53,1h-1.07a13.77,13.77,0,0,1-5.53-1,11.88,11.88,0,0,1-3.81-2.58,20.34,20.34,0,0,1-4.54-7.64h0a8.51,8.51,0,0,0-8-5.65,8.3,8.3,0,0,0-3.7.87,19.85,19.85,0,0,1-4.55,1.53,26.13,26.13,0,0,1-5.48.59,21,21,0,0,1-5.1-.6,4.13,4.13,0,0,1-2.34-1.6,4.81,4.81,0,0,1-.93-2.85,4.53,4.53,0,0,1,.14-1.15h0a4.41,4.41,0,0,0-8.57-2.11,14,14,0,0,0-.39,3.26,13.65,13.65,0,0,0,2.65,8.09,13,13,0,0,0,7.25,4.91,30.35,30.35,0,0,0,7.29.87,35.57,35.57,0,0,0,7.34-.79,28.48,28.48,0,0,0,6.19-2.06,31,31,0,0,0,4.15,7.87,21.67,21.67,0,0,0,8.93,7.16,22.16,22.16,0,0,0,5,1.43v10.7a22.79,22.79,0,0,1-2.05,9.51,24.16,24.16,0,0,1-5.85,7.92c-5.07,4.57-12.43,7.57-21.58,7.58A32.06,32.06,0,0,1,448.26,610a27,27,0,0,1-7.88-4.47,32.16,32.16,0,0,1-8.55-11.08,25,25,0,0,1-1.47-3.73h0a4.41,4.41,0,0,0-8.52,2.29A32.36,32.36,0,0,0,424,598.5a41.82,41.82,0,0,0,7.6,10.93,36.72,36.72,0,0,0,9.28,7,39.5,39.5,0,0,0,18.53,4.31,44.32,44.32,0,0,0,16.17-3c14.16,11.09,29.46,7.41,36.1.2a44.83,44.83,0,0,0,15.72,2.75A40.83,40.83,0,0,0,542,618.15a36.15,36.15,0,0,0,10.58-6.22,41.12,41.12,0,0,0,10.74-14.42A31.07,31.07,0,0,0,565,593h0A4.4,4.4,0,0,0,561.84,587.62Z"/><path class="cls-1" d="M576.82,472.24a19.24,19.24,0,0,0-19.15,17.28,1.8,1.8,0,0,0,1.79,2h34.72a1.8,1.8,0,0,0,1.79-2A19.24,19.24,0,0,0,576.82,472.24Z"/><path class="cls-1" d="M524.81,640.35a62.23,62.23,0,0,1-30.88,8.15,4.53,4.53,0,0,0-.53,0,4.71,4.71,0,0,0-.54,0A62.26,62.26,0,0,1,462,640.35a4.41,4.41,0,0,0-4.36,7.67,71.12,71.12,0,0,0,35.24,9.3,4.69,4.69,0,0,0,.54-.06,4.52,4.52,0,0,0,.53.06,71.12,71.12,0,0,0,35.24-9.3,4.41,4.41,0,1,0-4.36-7.67Z"/><path class="cls-1" d="M410,472.24a19.25,19.25,0,0,0-19.15,17.28,1.8,1.8,0,0,0,1.79,2h34.73a1.81,1.81,0,0,0,1.79-2A19.26,19.26,0,0,0,410,472.24Z"/><path class="cls-2" d="M878.37,510.88l-17.81-.79c.13-4.11.22-8.24.22-12.39,0-3.19,0-6.36-.12-9.53l17.68-.62a4.2,4.2,0,0,0,4.1-3.79,4.08,4.08,0,0,0-4.07-4.4h-.15l-17.86.63q-.51-11-1.66-21.84l17.54-2A4.22,4.22,0,0,0,880,452a4.09,4.09,0,0,0-4.56-4L857.76,450q-1.38-10.92-3.41-21.64l17.4-3.47a4.2,4.2,0,0,0,3.44-4.45,4.08,4.08,0,0,0-4.87-3.61l-17.56,3.51q-2.26-10.77-5.15-21.3l17-4.84a4.22,4.22,0,0,0,3.08-4.72,4.09,4.09,0,0,0-5.15-3.2l-17.13,4.89q-3.14-10.53-6.86-20.81L855,364.19a4.22,4.22,0,0,0,2.68-4.95,4.1,4.1,0,0,0-5.39-2.78l-16.67,6.26q-4-10.25-8.52-20.19l16.19-7.62a4.09,4.09,0,1,0-3.48-7.4l-16.19,7.62q-4.78-9.88-10.13-19.44l15.29-8.76a4.21,4.21,0,0,0,1.85-5.31,4.08,4.08,0,0,0-5.77-1.87l-15.44,8.85q-5.57-9.47-11.66-18.56l14.54-10a4.21,4.21,0,0,0,1.41-5.45,4.09,4.09,0,0,0-5.9-1.4l-14.68,10.06q-6.3-9-13.11-17.56l13.77-11.16a4.21,4.21,0,0,0,1-5.54,4.1,4.1,0,0,0-6-.92l-13.9,11.27q-7-8.44-14.48-16.46l12.82-12.22a4.15,4.15,0,0,0,.75-5.18,4.1,4.1,0,0,0-6.31-.82L754.78,237q-7.65-7.86-15.75-15.25l11.8-13.2a4.15,4.15,0,0,0,.33-5.22,4.08,4.08,0,0,0-6.35-.31L732.93,216.3q-8.25-7.2-16.92-13.93l10.69-14.08a4.25,4.25,0,0,0-.47-5.78,4.08,4.08,0,0,0-5.9.65L709.5,197.42q-8.81-6.51-18-12.53L701.07,170a4.14,4.14,0,0,0-.51-5.21,4.09,4.09,0,0,0-6.32.71l-9.61,15q-9.28-5.79-18.92-11l8.3-15.65a4.15,4.15,0,0,0-.93-5.15,4.09,4.09,0,0,0-6.24,1.22l-8.36,15.75q-9.71-5-19.75-9.48l7-16.25a4.24,4.24,0,0,0-1.84-5.48,4.11,4.11,0,0,0-5.59,2l-7.08,16.44q-10.08-4.22-20.45-7.85l5.62-16.66a4.24,4.24,0,0,0-2.3-5.32,4.08,4.08,0,0,0-5.38,2.49L603,142.41q-10.38-3.39-21-6.16l4.26-17.06a4.25,4.25,0,0,0-2.72-5.12,4.1,4.1,0,0,0-5.17,2.93l-4.31,17.26q-10.6-2.52-21.45-4.45l2.88-17.42a4.23,4.23,0,0,0-2.94-4.8,4.1,4.1,0,0,0-5.11,3.28l-2.91,17.61q-10.77-1.66-21.75-2.7l1.48-17.56a4.19,4.19,0,0,0-2.81-4.38,4.09,4.09,0,0,0-5.33,3.55l-1.49,17.71q-10.87-.8-21.91-.95l.09-17.92a4.07,4.07,0,0,0-4.08-4.09h0a4.1,4.1,0,0,0-4.1,4.07l-.08,17.91q-11,.07-21.9.78l-1.35-17.77a4.09,4.09,0,1,0-8.15.61l1.34,17.78q-11,.95-21.76,2.53L430,110.59a4.21,4.21,0,0,0-4.31-3.62,4.09,4.09,0,0,0-3.8,4.72l2.78,17.63q-10.86,1.83-21.49,4.28L399,116.39a4.23,4.23,0,0,0-4.59-3.26,4.1,4.1,0,0,0-3.41,5l4.21,17.37q-10.67,2.7-21.07,6l-5.52-16.74a4.21,4.21,0,0,0-4.84-2.88,4.09,4.09,0,0,0-3,5.27l5.58,16.9q-10.39,3.55-20.52,7.69l-6.94-16.43a4.08,4.08,0,0,0-5.55-2.09,4.24,4.24,0,0,0-1.89,5.49L338.3,155q-10.08,4.38-19.83,9.33l-8.16-15.66a4.22,4.22,0,0,0-5.24-2.07,4.09,4.09,0,0,0-2.1,5.69l8.24,15.82q-9.68,5.18-19,10.9l-9.37-14.92a4.21,4.21,0,0,0-5.38-1.63,4.1,4.1,0,0,0-1.64,5.84l9.46,15.06q-9.22,5.94-18.07,12.39l-10.67-14.29a4.1,4.1,0,0,0-5.9-.7,4.26,4.26,0,0,0-.52,5.78l10.53,14.11q-8.71,6.66-17,13.81L231.9,201.09a4.15,4.15,0,0,0-5.15-1,4.1,4.1,0,0,0-1.07,6.27l11.8,13.41q-8.16,7.34-15.87,15.12L209,222.71a4.25,4.25,0,0,0-5.8-.22,4.09,4.09,0,0,0-.06,5.94l12.79,12.39q-7.53,8-14.6,16.34L187.72,246a4.25,4.25,0,0,0-5.79.25,4.08,4.08,0,0,0,.41,5.92l13.77,11.36q-6.87,8.52-13.24,17.46L168.2,270.7a4.09,4.09,0,0,0-5.91,1.36,4.21,4.21,0,0,0,1.38,5.46l14.53,10.13q-6.16,9-11.8,18.46l-15.4-9a4.09,4.09,0,0,0-5.78,1.83,4.2,4.2,0,0,0,1.81,5.32l15.24,8.9q-5.4,9.49-10.27,19.35l-15.89-7.62a4.23,4.23,0,0,0-5.56,1.62,4.08,4.08,0,0,0,1.81,5.65l16.09,7.72q-4.62,9.9-8.67,20.12l-16.67-6.39a4.09,4.09,0,1,0-2.93,7.64l16.67,6.39q-3.79,10.24-7,20.75l-17.07-5a4.1,4.1,0,0,0-5.17,3.17,4.22,4.22,0,0,0,3,4.74l16.89,4.94q-3,10.51-5.31,21.26l-17.47-3.62a4.1,4.1,0,0,0-4.9,3.58,4.2,4.2,0,0,0,3.41,4.47l17.3,3.58q-2.09,10.71-3.57,21.63L99.34,445a4.09,4.09,0,0,0-4.6,4,4.21,4.21,0,0,0,3.75,4.17L116,455.28q-1.23,10.83-1.82,21.85l-17.8-.79a4.09,4.09,0,0,0-.36,8.17l17.8.79c-.13,4.12-.21,8.25-.21,12.4,0,3.18.06,6.35.14,9.52l-17.7.62a4.21,4.21,0,0,0-4.1,3.79A4.08,4.08,0,0,0,96,516h.15L114,515.4q.51,11,1.65,21.84l-17.51,2a4.24,4.24,0,0,0-3.82,4.16,4.09,4.09,0,0,0,4.09,4,3.87,3.87,0,0,0,.48,0l17.71-2.06Q118,556.29,120,567l-17.4,3.47a4.2,4.2,0,0,0-3.45,4.32,4.09,4.09,0,0,0,4.07,3.82,4.45,4.45,0,0,0,.81-.08l17.57-3.5q2.26,10.76,5.14,21.29l-17,4.85a4.19,4.19,0,0,0-3.09,4.46,4.09,4.09,0,0,0,4.06,3.61,3.94,3.94,0,0,0,1.12-.16L129,604.2q3.12,10.53,6.85,20.81l-16.5,6.19a4.22,4.22,0,0,0-2.66,5.06,4.09,4.09,0,0,0,5.36,2.67l16.68-6.26q4,10.23,8.51,20.18l-16.2,7.63a4.1,4.1,0,0,0,1.74,7.8,4,4,0,0,0,1.74-.4l16.21-7.62q4.78,9.87,10.12,19.43l-15.28,8.76a4.23,4.23,0,0,0-1.75,5.57,4.09,4.09,0,0,0,3.62,2.17,4.14,4.14,0,0,0,2-.54l15.45-8.86q5.56,9.45,11.66,18.55l-14.54,10a4.21,4.21,0,0,0-1.4,5.49,4.09,4.09,0,0,0,5.88,1.36l14.68-10.07q6.31,9,13.11,17.57L180.57,740.8a4.23,4.23,0,0,0-.79,5.84,4.1,4.1,0,0,0,5.79.65L199.47,736q7,8.43,14.48,16.45l-12.76,12.16a4.22,4.22,0,0,0-.45,5.73,4.08,4.08,0,0,0,5.95.33l12.91-12.3q7.64,7.86,15.74,15.25L223.6,786.77a4.27,4.27,0,0,0,.23,6,4.1,4.1,0,0,0,5.73-.36l11.89-13.3q8.25,7.21,16.91,13.94l-10.74,14.15a4.18,4.18,0,0,0,.22,5.43,4.11,4.11,0,0,0,6.21-.36L264.88,798q8.79,6.52,18,12.53l-9.52,14.89a4.22,4.22,0,0,0,.9,5.64,4.09,4.09,0,0,0,5.89-1.08l9.62-15q9.28,5.79,18.92,11l-8.28,15.61a4.21,4.21,0,0,0,1.17,5.41,4.09,4.09,0,0,0,6-1.43l8.35-15.75q9.72,5,19.75,9.48l-7,16.27a4.23,4.23,0,0,0,1.89,5.48,4.07,4.07,0,0,0,5.55-2.06l7.09-16.45q10.08,4.21,20.45,7.86L358,867a4.07,4.07,0,0,0,3.81,5.59,4.08,4.08,0,0,0,3.87-2.78s6-16.83,6.07-16.74h0c10.71-34.48,16.38-83.15,16.38-157.3V648.6h0l-21.3-25.7a45.26,45.26,0,0,1-10.18-33.59c1-9.56,5.73-50.28,9.11-80.79h0a50.1,50.1,0,0,0,44.23,26,54.47,54.47,0,0,0,53.78-46.31,5.71,5.71,0,0,0,.43-1.18,27.29,27.29,0,0,1,3.95-8.92,26.7,26.7,0,0,1,6.54-6.66,32.21,32.21,0,0,1,18.74-5.76A33.32,33.32,0,0,1,508,469a27.43,27.43,0,0,1,10.63,9.11,27.08,27.08,0,0,1,4,8.92,6.05,6.05,0,0,0,.44,1.19,54.45,54.45,0,0,0,53.77,46.3,49.87,49.87,0,0,0,44.78-26.91h0c3.27,30.75,7.58,72.19,8.56,81.69A45.3,45.3,0,0,1,620,622.9l-21.3,25.7h0l4.6,84.88c1.84,23.95.25,68.37-4.48,113.9a11.83,11.83,0,0,0,.61,5.21l6.42,18.19a4.09,4.09,0,0,0,6,2.2,4.2,4.2,0,0,0,1.69-4.91L608,851.3q10.4-3.56,20.51-7.69l7,16.44a4.09,4.09,0,0,0,3.77,2.5,4.15,4.15,0,0,0,2.23-.66,4.2,4.2,0,0,0,1.47-5.17l-6.88-16.29q10.08-4.38,19.83-9.33l8.25,15.82a4.1,4.1,0,0,0,6,1.46,4.2,4.2,0,0,0,1.2-5.37l-8.17-15.68q9.68-5.18,19-10.9l9.46,15.06a4.1,4.1,0,0,0,5.91,1.1,4.22,4.22,0,0,0,.92-5.61l-9.36-14.91q9.23-5.94,18.07-12.4L717.84,814a4.08,4.08,0,0,0,6.22.4,4.19,4.19,0,0,0,.24-5.42l-10.58-14.18q8.71-6.66,17-13.8l11.79,13.42a4.09,4.09,0,0,0,5.74.4,4.27,4.27,0,0,0,.27-6l-11.66-13.27q8.15-7.32,15.86-15.12l12.8,12.4a4.1,4.1,0,0,0,6-.29,4.22,4.22,0,0,0-.41-5.72l-12.67-12.27q7.54-7.95,14.6-16.34l13.79,11.36a4.08,4.08,0,0,0,5.81-.61,4.23,4.23,0,0,0-.75-5.82l-13.64-11.24q6.87-8.53,13.24-17.46l14.68,10.24a4.11,4.11,0,0,0,5.9-1.33,4.21,4.21,0,0,0-1.37-5.49l-14.52-10.12q6.17-9,11.8-18.47l15.39,9a4.09,4.09,0,0,0,5.67-1.6,4.22,4.22,0,0,0-1.71-5.56l-15.23-8.89q5.4-9.5,10.27-19.35l16.1,7.73a4.1,4.1,0,0,0,5.63-2.34,4.2,4.2,0,0,0-2.25-5.11l-16-7.66q4.64-9.9,8.68-20.11l16.69,6.4a4.14,4.14,0,0,0,1.46.27,4.09,4.09,0,0,0,1.47-7.91l-16.69-6.4q3.79-10.25,7-20.75l17.08,5a4.29,4.29,0,0,0,1.16.17,4.11,4.11,0,0,0,4.06-3.6,4.2,4.2,0,0,0-3.06-4.47l-16.93-5q3-10.5,5.31-21.25l17.49,3.62a3.89,3.89,0,0,0,.83.08,4.1,4.1,0,0,0,4.08-3.8,4.21,4.21,0,0,0-3.43-4.33l-17.31-3.58q2.09-10.71,3.57-21.63l17.66,2.2a4.36,4.36,0,0,0,.51,0,4.09,4.09,0,0,0,.5-8.15l-17.66-2.2c.81-7.22,1.43-14.5,1.82-21.84l17.81.79h.18a4.09,4.09,0,0,0,.18-8.18Zm-324.63-334c11.72,10.21,61.82,58.12,61.82,131,0,15.22-5,29.24-10.36,40a1.46,1.46,0,0,1-2.3.4c-4.1-3.84-11.32-5-15.36-5.34a3,3,0,0,1-2.69-3.11c.3-8.26-3.91-15.1-10-20.68-5.71-5.23-15-4.55-20-3.73a2.91,2.91,0,0,1-3.36-2.88c0-21.61-.19-134.56-.19-134.56A1.47,1.47,0,0,1,553.74,176.83ZM444.47,181a1.53,1.53,0,0,1,2.34,1.29V282.84a1.51,1.51,0,0,1-1.52,1.51,25.4,25.4,0,0,0-4.55.38,25.74,25.74,0,0,0-18.8,14.19,1.45,1.45,0,0,1-2,.63c-3.21-1.74-11.69-5.49-21-2.74a25.08,25.08,0,0,0-9.36,5.2,1.46,1.46,0,0,1-2.4-1.24C393.46,219.69,431.27,189.24,444.47,181ZM410,522.77c-17.49,0-31.81-10.62-37.36-27.72a47.64,47.64,0,0,1-2.32-14.89,19.52,19.52,0,0,1,3-11h0A24.88,24.88,0,0,1,383,461a58.54,58.54,0,0,1,53.91,0c10.4,5.4,15.67,11.87,15.67,19.22A42.66,42.66,0,0,1,410,522.77Zm115.51-55h0a38.93,38.93,0,0,0-6.5-5.88A43.85,43.85,0,0,0,493.62,454H493a45,45,0,0,0-19.47,4.51,39.47,39.47,0,0,0-12.25,9.32h0c-3-5.81-8.69-11.93-19-17.27a69.86,69.86,0,0,0-64.76,0c-7.3,3.86-10.17,7.33-18.38,3.86-5-2.1-7.27-1.43-12.59.89a16.86,16.86,0,0,1-17.52-4.88l-.42-.46a17,17,0,0,1-3.67-14,8.75,8.75,0,0,0-6.89-10.12A17,17,0,0,1,306.2,402a8.78,8.78,0,0,0-4.14-11.57,17,17,0,0,1-8.87-10.78l-.13-.59A17,17,0,0,1,296,365a8.81,8.81,0,0,0-1.65-12.16,17,17,0,0,1-1.4-25.62,8.83,8.83,0,0,0,.31-12.31,17,17,0,0,1,4.52-26.58,7.33,7.33,0,0,0,3.93-6.7c-.48-18.15,11.29-25.42,14.91-27.22,4.3-2.14,8.81-2.73,12.17-1.74h0c-7.88,11.25-7.22,21-6,26a8.77,8.77,0,0,0,8.45,6.69h.31a17,17,0,0,1,17.26,14.1,8.87,8.87,0,0,0,11.76,6.87,16.69,16.69,0,0,1,19,4.76,8.88,8.88,0,0,0,13.74-.27,17,17,0,0,1,23-3.21,8.62,8.62,0,0,0,7.39,1.25,9,9,0,0,0,5.8-5.21,16.93,16.93,0,0,1,12.78-10.24,16.39,16.39,0,0,1,4.17-.2A17.09,17.09,0,0,1,458,299a8.85,8.85,0,0,0,13.81-.45A17,17,0,0,1,487.22,292a16.81,16.81,0,0,1,13.6,9.81,8.87,8.87,0,0,0,13.37,3.47c4.29-3.17,11.75-3.92,18.56-1.88,5.67,1.71,10,6.88,10,12,0,.5-.41,6.26,3.47,8.1a12.7,12.7,0,0,0,9,.84,16.9,16.9,0,0,1,14.52,1.93,15.6,15.6,0,0,1,6.17,15.2,8.86,8.86,0,0,0,9.52,10.19,16.56,16.56,0,0,1,13.42,5.09,15,15,0,0,1,1.54,1.93c4.25,6.33,2.66,13.24.58,17.92a8.86,8.86,0,0,0-.12,7,8.52,8.52,0,0,0,4.82,4.78,12.12,12.12,0,0,1,7.68,10.91L615,454.12h0a45.08,45.08,0,0,0-5.84-3.61,70.25,70.25,0,0,0-64.75,0C534.17,455.85,528.48,462,525.48,467.78Zm89.14,25.85c-5.11,17.71-19.94,29.14-37.8,29.14a42.65,42.65,0,0,1-42.61-42.61c0-7.35,5.27-13.82,15.66-19.22a58.5,58.5,0,0,1,53.91,0,25.38,25.38,0,0,1,9.55,8h0a19.57,19.57,0,0,1,3.17,11.25A48.32,48.32,0,0,1,614.62,493.63Z"/></svg>