<svg id="Layer_1" data-name="Layer 1" xmlns="http://www.w3.org/2000/svg" viewBox="0 0 995.39 995.39"><defs><style>.cls-1{fill:#2b252c;}.cls-2{fill:#6460e3;}.cls-3{fill:#64b5e3;}.cls-4{fill:#73e987;}.cls-5{fill:#ffe97a;}.cls-6{fill:#ff9a55;}.cls-7{fill:#ff4556;}.cls-8{fill:#b55a4d;}</style></defs><title>seldo-</title><path class="cls-1" d="M499.78,596.35a25.17,25.17,0,0,0,10.18,11,33.86,33.86,0,0,0,17.43,4.48,30.66,30.66,0,0,0,14.44-3.31,28,28,0,0,0,7-5.28,32.81,32.81,0,0,0,6-8.62,31,31,0,0,0,1.26-3c.12-.35.21-.62.26-.78l0-.18v0h0A4.41,4.41,0,0,1,565,593h0a31.07,31.07,0,0,1-1.68,4.49,41.12,41.12,0,0,1-10.74,14.42A36.15,36.15,0,0,1,542,618.15a40.83,40.83,0,0,1-14.56,2.54,44.83,44.83,0,0,1-15.72-2.75c-6.64,7.21-21.94,10.89-36.1-.2a44.32,44.32,0,0,1-16.17,3,39.5,39.5,0,0,1-18.53-4.31,36.72,36.72,0,0,1-9.28-7A41.82,41.82,0,0,1,424,598.5a32.36,32.36,0,0,1-2.15-5.48,4.41,4.41,0,0,1,8.52-2.29h0a25,25,0,0,0,1.47,3.73,32.16,32.16,0,0,0,8.55,11.08,27,27,0,0,0,7.88,4.47,32.06,32.06,0,0,0,11.14,1.86c9.15,0,16.51-3,21.58-7.58a24.16,24.16,0,0,0,5.85-7.92,22.79,22.79,0,0,0,2.05-9.51v-10.7a22.16,22.16,0,0,1-5-1.43,21.67,21.67,0,0,1-8.93-7.16,31,31,0,0,1-4.15-7.87,28.48,28.48,0,0,1-6.19,2.06,35.57,35.57,0,0,1-7.34.79,30.35,30.35,0,0,1-7.29-.87,13,13,0,0,1-7.25-4.91,13.65,13.65,0,0,1-2.65-8.09,14,14,0,0,1,.39-3.26,4.41,4.41,0,0,1,8.57,2.11h0a4.53,4.53,0,0,0-.14,1.15,4.81,4.81,0,0,0,.93,2.85,4.13,4.13,0,0,0,2.34,1.6,21,21,0,0,0,5.1.6,26.13,26.13,0,0,0,5.48-.59,19.85,19.85,0,0,0,4.55-1.53,8.3,8.3,0,0,1,3.7-.87,8.51,8.51,0,0,1,8,5.65h0a20.34,20.34,0,0,0,4.54,7.64,11.88,11.88,0,0,0,3.81,2.58,13.77,13.77,0,0,0,5.53,1h1.07a13.73,13.73,0,0,0,5.53-1,12.89,12.89,0,0,0,5.3-4.3,22.69,22.69,0,0,0,3.05-5.92,8.51,8.51,0,0,1,8-5.65,8.29,8.29,0,0,1,3.69.87h0a19.78,19.78,0,0,0,4.56,1.53,26,26,0,0,0,5.47.59,21,21,0,0,0,5.1-.6,4.1,4.1,0,0,0,2.34-1.6,4.74,4.74,0,0,0,.93-2.85,5,5,0,0,0-.13-1.15,4.41,4.41,0,1,1,8.56-2.11,13.59,13.59,0,0,1-2.26,11.35,13,13,0,0,1-7.25,4.91,30.35,30.35,0,0,1-7.29.87,35.57,35.57,0,0,1-7.34-.79A28.66,28.66,0,0,1,516,559.7a28.52,28.52,0,0,1-6.52,10.6,20.87,20.87,0,0,1-11.77,5.89v10.67A22.45,22.45,0,0,0,499.78,596.35Z"/><path class="cls-1" d="M576.82,472.24A19.24,19.24,0,0,1,596,489.52a1.8,1.8,0,0,1-1.79,2H559.46a1.8,1.8,0,0,1-1.79-2A19.24,19.24,0,0,1,576.82,472.24Z"/><path class="cls-1" d="M457.62,648a4.41,4.41,0,0,1,4.36-7.67,62.26,62.26,0,0,0,30.88,8.15,4.71,4.71,0,0,1,.54,0,4.53,4.53,0,0,1,.53,0h0a62.23,62.23,0,0,0,30.88-8.15,4.41,4.41,0,1,1,4.36,7.67,71.12,71.12,0,0,1-35.24,9.3,4.52,4.52,0,0,1-.53-.06,4.69,4.69,0,0,1-.54.06A71.12,71.12,0,0,1,457.62,648Z"/><path class="cls-1" d="M410,472.24a19.26,19.26,0,0,1,19.16,17.28,1.81,1.81,0,0,1-1.79,2H392.61a1.8,1.8,0,0,1-1.79-2A19.25,19.25,0,0,1,410,472.24Z"/><path class="cls-2" d="M487.19,124.1c-206.33,0-373.6,167.27-373.6,373.6,0,2.32,0,4.63.07,6.94l0,1.45q.07,3.36.21,6.72c0,.39,0,.77,0,1.16.09,2.06.19,4.13.31,6.19l.06,1q.21,3.35.48,6.67l.12,1.46c.19,2.25.39,4.49.62,6.73,0,.13,0,.26,0,.39q.33,3.23.72,6.44c.06.45.11.91.17,1.36q.41,3.27.86,6.52c.06.42.13.83.19,1.24q.44,3,.93,6.07c0,.27.08.54.13.81q.54,3.25,1.13,6.5c.09.47.18.95.26,1.42q.61,3.24,1.27,6.47c0,.22.09.44.14.66q.63,3,1.3,6c.1.42.19.84.28,1.26q.72,3.15,1.5,6.29c.1.43.21.85.32,1.28q.75,3,1.55,6l.15.54q.85,3.16,1.76,6.3c.13.46.27.92.4,1.37.61,2.08,1.23,4.14,1.87,6.2l.27.84q.9,2.85,1.84,5.68l.37,1.12c.68,2,1.38,4,2.1,6l.45,1.27c.72,2,1.45,4,2.19,6,0,.09.07.18.1.26.77,2,1.57,4,2.37,6.06l.53,1.32c.79,2,1.61,3.93,2.43,5.88l.42,1q1.15,2.68,2.34,5.37c.15.32.29.65.44,1q1.3,2.9,2.66,5.77l.6,1.26c.92,1.95,1.86,3.9,2.82,5.83l.08.16q1.42,2.84,2.89,5.66l.63,1.21c1,1.87,2,3.72,3,5.57.19.33.37.67.56,1,.94,1.7,1.88,3.4,2.85,5.09.15.27.3.54.46.81,1.05,1.83,2.11,3.64,3.19,5.45l.73,1.23q1.65,2.73,3.33,5.44l.28.44c1.07,1.7,2.16,3.4,3.25,5.09l.72,1.11c1.15,1.74,2.3,3.48,3.47,5.2l.72,1q1.65,2.41,3.35,4.82l.43.62c1.22,1.72,2.46,3.42,3.71,5.12l.85,1.15c1.25,1.69,2.51,3.37,3.8,5l.47.61c1.19,1.55,2.4,3.08,3.61,4.6l.78,1q2,2.43,4,4.83l.85,1q1.92,2.31,3.89,4.58l.33.4q2.08,2.4,4.2,4.75l1,1.07q2.1,2.33,4.24,4.62l.66.7c1.31,1.4,2.63,2.78,4,4.16l.81.84c1.45,1.49,2.92,3,4.39,4.43l1,1c1.48,1.46,3,2.92,4.48,4.35l.14.14c1.54,1.47,3.1,2.92,4.67,4.37l1,.95q2.31,2.12,4.65,4.18l.83.73q2.15,1.89,4.33,3.75l.8.68q2.39,2,4.8,4l1.11.9c1.64,1.34,3.3,2.67,5,4l.29.22q2.42,1.89,4.86,3.74l1.09.83c1.66,1.25,3.34,2.49,5,3.72l1,.7q2.34,1.7,4.71,3.35l.74.52c1.72,1.2,3.46,2.38,5.2,3.55l1.2.8q2.64,1.75,5.31,3.47l.54.34q2.5,1.59,5,3.15l1.12.69c1.78,1.09,3.58,2.17,5.38,3.23l1.12.65c1.71,1,3.42,2,5.15,2.95l.59.34q2.78,1.54,5.58,3.06l1.28.68c1.86,1,3.74,2,5.62,2.94l.75.37q2.63,1.34,5.26,2.62l1.11.55q2.83,1.36,5.7,2.7l1.24.57q2.82,1.29,5.64,2.54l.37.16q3,1.29,5.95,2.53l1.3.55c2,.81,3.94,1.61,5.93,2.39l.93.36c1.83.71,3.66,1.41,5.51,2.09l1,.39c2,.74,4,1.45,6,2.16l1.32.45q3.11,1.08,6.24,2.1h0A269.88,269.88,0,0,0,379,823.18C242.65,777.88,144.28,649.29,144.28,497.7c0-189.39,153.52-342.91,342.91-342.91s342.9,153.52,342.9,342.91c0,149.41-95.57,276.47-228.9,323.47-.86,10.94-1.92,22.16-3.17,33.4h0c2.18-.68,4.34-1.38,6.51-2.09l1.07-.36c2.12-.71,4.24-1.43,6.34-2.18l.68-.24q3-1.1,6.08-2.23l.61-.23q3.13-1.18,6.24-2.43l1-.41q3.15-1.27,6.26-2.59l.13,0q3.07-1.31,6.12-2.67l.9-.39q3-1.37,6-2.77l.92-.43c2-1,4.06-1.94,6.07-2.94h0c2-1,4-2,6-3.06l1-.51c2-1,3.9-2.06,5.83-3.12l.65-.35c1.87-1,3.72-2.06,5.57-3.12l.56-.32c1.92-1.09,3.82-2.21,5.71-3.34l1-.57q2.87-1.73,5.7-3.49l.18-.12q2.77-1.74,5.52-3.52l.81-.53c1.83-1.2,3.64-2.41,5.45-3.63l.84-.59q5.52-3.76,10.9-7.74l.91-.67q2.63-1.95,5.22-3.94l.62-.48c1.66-1.29,3.32-2.58,5-3.9l.51-.4q2.55-2.05,5.07-4.15l.89-.75c1.69-1.41,3.37-2.83,5-4.28l.23-.2c1.61-1.4,3.22-2.83,4.81-4.26l.75-.67q2.4-2.18,4.76-4.39l.8-.75c1.6-1.51,3.2-3,4.78-4.57h0c1.59-1.55,3.15-3.11,4.7-4.68l.83-.84q2.28-2.31,4.51-4.66c.2-.2.39-.41.59-.62,1.42-1.51,2.83-3,4.23-4.55.15-.17.32-.34.47-.52q2.19-2.4,4.34-4.84c.27-.3.53-.61.8-.92q2.16-2.46,4.27-5l.27-.32c1.36-1.61,2.7-3.24,4-4.87l.66-.81q2-2.5,4-5c.24-.31.47-.62.71-.92,1.34-1.73,2.68-3.47,4-5.23l0,0q2-2.64,3.9-5.33l.72-1q1.88-2.61,3.71-5.27c.18-.26.36-.53.55-.79,1.15-1.69,2.3-3.39,3.43-5.09l.41-.62c1.19-1.8,2.36-3.62,3.52-5.44l.69-1.09c1.16-1.84,2.31-3.68,3.43-5.54l.28-.47c1.07-1.77,2.13-3.56,3.18-5.35l.55-1q1.6-2.79,3.17-5.6l.6-1.08q1.57-2.88,3.12-5.77l0-.07q1.54-2.93,3-5.88c.2-.38.39-.76.58-1.14,1-1.93,1.91-3.86,2.85-5.8.15-.32.29-.63.44-.94q1.32-2.76,2.59-5.55l.33-.71c.89-2,1.77-4,2.63-6l.53-1.23q1.29-3,2.53-6l.24-.6q1.15-2.87,2.28-5.76c.13-.35.27-.71.41-1.07.77-2,1.53-4,2.26-6.07l.44-1.22c.74-2.07,1.48-4.15,2.19-6.25a.19.19,0,0,1,0-.07c.72-2.11,1.4-4.23,2.08-6.35l.41-1.28q1-3.11,1.9-6.23c.11-.36.21-.72.31-1.07q.87-3,1.68-5.94c.07-.26.15-.52.22-.78.58-2.12,1.13-4.24,1.67-6.38l.34-1.36q.79-3.21,1.55-6.45c.05-.23.1-.47.16-.7q.69-3,1.33-6.11c.08-.39.17-.77.25-1.16q.66-3.22,1.27-6.46c.09-.45.17-.9.25-1.34q.62-3.33,1.17-6.67v0c.37-2.24.72-4.48,1-6.74.07-.45.13-.91.2-1.37q.46-3.28.89-6.59c0-.39.09-.79.14-1.18q.38-3.12.71-6.25l.09-.83c.23-2.24.43-4.48.62-6.73l.12-1.45c.18-2.26.35-4.51.49-6.78,0-.27,0-.53.05-.8.13-2.12.23-4.25.33-6.38,0-.41,0-.81.05-1.22q.13-3.37.21-6.78l0-1.42c0-2.34.07-4.68.07-7C860.78,291.37,693.52,124.1,487.19,124.1Z"/><path class="cls-3" d="M830.09,497.7c0-189.39-153.52-342.91-342.9-342.91S144.28,308.31,144.28,497.7c0,151.59,98.37,280.18,234.76,325.48,1.77-9.42,3.3-19.67,4.56-30.88C262.09,749.57,175,633.82,175,497.7,175,344,286,216.23,432.29,190.29A85.37,85.37,0,0,1,444.47,181a1.52,1.52,0,0,1,2.34,1.29v5.77a315.16,315.16,0,0,1,104.53,4c0-8.71,0-14.14,0-14.14a1.46,1.46,0,0,1,2.42-1.11,179.43,179.43,0,0,1,20,20.81C704.07,235.18,799.4,355.3,799.4,497.7c0,131.4-81.18,243.83-196.12,289.9-.47,10.62-1.17,21.93-2.09,33.57C734.52,774.17,830.09,647.11,830.09,497.7Z"/><path class="cls-4" d="M205.65,497.7a280.64,280.64,0,0,1,84.45-201,17,17,0,0,1,7.68-8.32,7.33,7.33,0,0,0,3.93-6.7c-.48-18.15,11.29-25.42,14.91-27.22,4.3-2.14,8.81-2.73,12.18-1.74a35.22,35.22,0,0,0-6.61,16.87,280.38,280.38,0,0,1,82.53-41.13c8.73-18.37,19.08-30.46,27.57-38.16C286,216.23,175,344,175,497.7c0,136.12,87.12,251.87,208.63,294.6,1.11-9.81,2-20.35,2.72-31.7C280.66,720,205.65,617.63,205.65,497.7Z"/><path class="cls-4" d="M799.4,497.7c0-142.4-95.33-262.52-225.64-300a193.49,193.49,0,0,1,26.66,42.24c99.09,43.58,168.3,142.61,168.3,257.81,0,113.8-67.53,211.82-164.71,256.21.07,9.94-.18,21.35-.73,33.69C718.22,741.53,799.4,629.1,799.4,497.7Z"/><path class="cls-4" d="M487.19,216.17a282.86,282.86,0,0,1,64.19,7.35c0-12.18,0-23.25,0-31.43a315.16,315.16,0,0,0-104.53-4v31A284.43,284.43,0,0,1,487.19,216.17Z"/><path class="cls-5" d="M768.72,497.7c0-115.2-69.21-214.23-168.3-257.81a166.59,166.59,0,0,1,12.8,40.89,250.91,250.91,0,0,1-10.64,439.69l.7,13c.44,5.72.68,12.63.73,20.43C701.19,709.52,768.72,611.5,768.72,497.7Z"/><path class="cls-5" d="M322.78,278.68a8.77,8.77,0,0,0,8.45,6.69h.31A16.82,16.82,0,0,1,344,290.26c.29.29.57.59.83.89a250.32,250.32,0,0,1,47.38-25.67,175.45,175.45,0,0,1,12.51-37,280.38,280.38,0,0,0-82.53,41.13A27.81,27.81,0,0,0,322.78,278.68Z"/><path class="cls-5" d="M236.34,497.7a249.72,249.72,0,0,1,52.23-153.21,16.38,16.38,0,0,1-.75-4.19,17,17,0,0,1,5.13-13,8.83,8.83,0,0,0,.31-12.31,17,17,0,0,1-3.16-18.26,280.64,280.64,0,0,0-84.45,201c0,119.93,75,222.33,180.67,262.9.63-10.19,1.09-21,1.39-32.57C298.66,689.51,236.34,600.89,236.34,497.7Z"/><path class="cls-5" d="M551.43,255.17c0-10.63,0-21.52,0-31.65a283.81,283.81,0,0,0-104.57-4.46v31a252.28,252.28,0,0,1,104.62,5.07Z"/><path class="cls-6" d="M348.8,299.47a8.87,8.87,0,0,0,11.76,6.87,17.33,17.33,0,0,1,4.79-1.13,17.7,17.7,0,0,1,10,2.39q5.81-3.44,11.84-6.53l.39-.19a1.4,1.4,0,0,1-.39-1.1,240.5,240.5,0,0,1,5-34.3,250.32,250.32,0,0,0-47.38,25.67A16.86,16.86,0,0,1,348.8,299.47Z"/><path class="cls-6" d="M738,497.7A250.73,250.73,0,0,0,613.22,280.78a157.89,157.89,0,0,1,2.34,27.05,74.71,74.71,0,0,1-.76,10.45,220.2,220.2,0,0,1-14.07,368.06l1.85,34.13A250.82,250.82,0,0,0,738,497.7Z"/><path class="cls-6" d="M487.19,277.54a220.06,220.06,0,0,1,64.28,9.55c0-9.51,0-20.56,0-31.92a252.28,252.28,0,0,0-104.62-5.07v30.74a1.84,1.84,0,0,1-.06.41l.06,0A221.92,221.92,0,0,1,487.19,277.54Z"/><path class="cls-6" d="M267,497.7a220.17,220.17,0,0,1,30-111.14,17,17,0,0,1-3.8-6.92l-.13-.59A17,17,0,0,1,296,365a8.81,8.81,0,0,0-1.65-12.16,16.88,16.88,0,0,1-5.78-8.39A249.72,249.72,0,0,0,236.34,497.7c0,103.19,62.32,191.81,151.37,230.33.26-10.18.4-20.9.4-32.22v-1.47A220.14,220.14,0,0,1,267,497.7Z"/><path class="cls-7" d="M297.72,497.7a188.84,188.84,0,0,1,15-74A17,17,0,0,1,306.2,402a8.78,8.78,0,0,0-4.14-11.57,17.1,17.1,0,0,1-5.07-3.86,220.49,220.49,0,0,0,91.12,307.78V659.22A189.34,189.34,0,0,1,297.72,497.7Z"/><path class="cls-7" d="M574.85,319.12c-5.69-5.22-15-4.55-19.92-3.74a2.93,2.93,0,0,1-3.42-2.88c0-4.76,0-14,0-25.41a221.75,221.75,0,0,0-104.66-5.86l-.06,0a1.48,1.48,0,0,1-1.42,1.1,25.77,25.77,0,0,0-4.59.38c-8.27,1.46-15.19,7.72-18.8,15.19a1.45,1.45,0,0,1-2,.63c-3.21-1.74-11.69-5.49-21-2.74a25.17,25.17,0,0,0-9.33,5.17,1.46,1.46,0,0,1-2-.1l-.39.19q-6,3.09-11.84,6.53a16.86,16.86,0,0,1,4.18,3.5,8.88,8.88,0,0,0,13.74-.27,17,17,0,0,1,23-3.21,8.62,8.62,0,0,0,7.39,1.25,9,9,0,0,0,5.8-5.21,16.93,16.93,0,0,1,12.78-10.24,16.39,16.39,0,0,1,4.17-.2A17.09,17.09,0,0,1,458,299a8.85,8.85,0,0,0,13.81-.45A17,17,0,0,1,487.22,292a16.81,16.81,0,0,1,13.6,9.81,8.87,8.87,0,0,0,13.37,3.47c4.29-3.17,11.75-3.92,18.56-1.88,5.67,1.71,10,6.88,10,12,0,.5-.41,6.26,3.47,8.1a12.7,12.7,0,0,0,9,.84,17.29,17.29,0,0,1,12.39.71h0l0,0,.11.05a180.16,180.16,0,0,1,16.58,8.94C583,328.31,579.47,323.35,574.85,319.12Z"/><path class="cls-7" d="M707.34,497.7A219.89,219.89,0,0,0,614.8,318.28a97.45,97.45,0,0,1-9.6,29.56,1.28,1.28,0,0,1-.53.57c43,34.74,72,89.07,72,149.29A189.19,189.19,0,0,1,598.8,650.8l1.93,35.54A220,220,0,0,0,707.34,497.7Z"/><path class="cls-8" d="M567.58,325.06h0l.06,0Z"/><path class="cls-8" d="M676.65,497.7c0-60.22-29-114.55-72-149.29a1.52,1.52,0,0,1-1.83-.21c-4.1-3.8-11.27-4.95-15.3-5.29a3,3,0,0,1-2.69-3.11,22,22,0,0,0-.54-5.73,180.16,180.16,0,0,0-16.58-8.94,12.19,12.19,0,0,1,2,1.15,15.57,15.57,0,0,1,6.17,15.19,8.86,8.86,0,0,0,9.52,10.19,16.56,16.56,0,0,1,13.42,5.09,15,15,0,0,1,1.54,1.93c4.25,6.33,2.66,13.24.58,17.92a8.86,8.86,0,0,0-.12,7,8.52,8.52,0,0,0,4.82,4.78,12.12,12.12,0,0,1,7.68,10.91l.06,2a158.84,158.84,0,0,1,14.86,169.38c.91,8.7,1.61,15.45,1.94,18.62A45.3,45.3,0,0,1,620,622.9l-21.3,25.7.12,2.2A189.19,189.19,0,0,0,676.65,497.7Z"/><path class="cls-8" d="M334.4,454.34a17,17,0,0,1-5.3-4l-.42-.46a17,17,0,0,1-3.67-14,8.75,8.75,0,0,0-6.89-10.12,17.15,17.15,0,0,1-5.4-2.12,189.67,189.67,0,0,0,75.39,235.54V648.6l-21.3-25.7a45.26,45.26,0,0,1-10.18-33.59c0-.32.08-.68.12-1.07a159,159,0,0,1-22.35-133.9Z"/><path class="cls-1" d="M613.36,401.31,615,454.13a44.05,44.05,0,0,0-5.84-3.62,70.25,70.25,0,0,0-64.75,0c-10.28,5.34-16,11.46-19,17.27a38.93,38.93,0,0,0-6.5-5.88A43.85,43.85,0,0,0,493.62,454H493a45,45,0,0,0-19.47,4.51,39.63,39.63,0,0,0-12.26,9.32c-3-5.81-8.68-11.93-19-17.27a69.86,69.86,0,0,0-64.76,0c-7.3,3.86-10.17,7.33-18.38,3.86-5-2.1-7.27-1.43-12.59.89a16.84,16.84,0,0,1-12.22-.92,159,159,0,0,0,22.35,133.9c1.19-11.22,5.73-50.24,9-79.73a50.1,50.1,0,0,0,44.23,26,54.47,54.47,0,0,0,53.78-46.31,5.71,5.71,0,0,0,.43-1.18,27.29,27.29,0,0,1,3.95-8.92,26.7,26.7,0,0,1,6.54-6.66,32.14,32.14,0,0,1,18.74-5.75A33.17,33.17,0,0,1,508,469a27.43,27.43,0,0,1,10.63,9.11,27.08,27.08,0,0,1,4,8.92,6.05,6.05,0,0,0,.44,1.19,54.45,54.45,0,0,0,53.77,46.3,49.85,49.85,0,0,0,44.78-26.91c2.18,20.48,4.81,45.69,6.62,63.07a158.84,158.84,0,0,0-14.86-169.38ZM410,522.77c-17.49,0-31.81-10.62-37.36-27.72a47.64,47.64,0,0,1-2.32-14.89,19.52,19.52,0,0,1,3-11h0A24.88,24.88,0,0,1,383,461a58.54,58.54,0,0,1,53.91,0c10.4,5.4,15.67,11.87,15.67,19.22A42.66,42.66,0,0,1,410,522.77Zm204.65-29.14c-5.11,17.71-19.94,29.14-37.8,29.14a42.65,42.65,0,0,1-42.61-42.61c0-7.35,5.27-13.82,15.66-19.22a58.5,58.5,0,0,1,53.91,0,25.38,25.38,0,0,1,9.55,8h0a19.57,19.57,0,0,1,3.17,11.25A48.32,48.32,0,0,1,614.62,493.63Z"/></svg>