<svg xmlns="http://www.w3.org/2000/svg" viewBox="0 0 2244.04 395"><defs><style>.cls-1{fill:#2b252c;}.cls-2{fill:#fff;}</style></defs><title>Seldo.com</title><g id="Layer_2" data-name="Layer 2"><g id="Layer_1-2" data-name="Layer 1"><path class="cls-1" d="M1532.75,243.87v-4.48c-3.62-.73-6.42-3.23-8-7.24a15.73,15.73,0,0,1-9.34.71,6.63,6.63,0,0,1-4.7-8,2.51,2.51,0,1,1,4.87,1.2,1.6,1.6,0,0,0,1.07,2,10.45,10.45,0,0,0,6.56-.65,4.27,4.27,0,0,1,3.53-.13,4.36,4.36,0,0,1,2.49,2.59c1.71,4.8,4.84,4.8,5.86,4.8h.49c1,0,4.15,0,5.86-4.8a4.39,4.39,0,0,1,2.49-2.59,4.27,4.27,0,0,1,3.53.13,10.45,10.45,0,0,0,6.56.65,1.6,1.6,0,0,0,1.07-2,2.51,2.51,0,1,1,4.88-1.2,6.63,6.63,0,0,1-4.7,8,15.76,15.76,0,0,1-9.35-.71c-1.63,4-4.45,6.55-8.12,7.26v4.46c0,6.22,5.61,10.91,13,10.91a13.1,13.1,0,0,0,12.77-9.29,2.51,2.51,0,0,1,4.85,1.32,18.08,18.08,0,0,1-17.62,13,21,21,0,0,1-7.56-1.38c-3.12,3-9.55,4.32-15.62-.12a20.76,20.76,0,0,1-7.83,1.5,18.09,18.09,0,0,1-17.62-13,2.5,2.5,0,0,1,1.76-3.07,2.53,2.53,0,0,1,3.09,1.75,13.1,13.1,0,0,0,12.77,9.29C1527.18,254.78,1532.75,250.09,1532.75,243.87Zm40.61-52.3a8.79,8.79,0,0,0-8.73,7.89.82.82,0,0,0,.81.9h15.85a.82.82,0,0,0,.81-.9A8.79,8.79,0,0,0,1573.36,191.57Zm-20.54,77.2a2.53,2.53,0,0,0-3.43-.94,28,28,0,0,1-13.84,3.65h-.49a28,28,0,0,1-13.84-3.65,2.51,2.51,0,0,0-2.48,4.37,33,33,0,0,0,16.32,4.31h.49a33.08,33.08,0,0,0,16.33-4.31A2.53,2.53,0,0,0,1552.82,268.77Zm-55.57-77.2a8.79,8.79,0,0,0-8.74,7.89.82.82,0,0,0,.82.9h15.84a.83.83,0,0,0,.82-.9A8.79,8.79,0,0,0,1497.25,191.57Z"/><path class="cls-2" d="M315.18,7.25a3.43,3.43,0,0,1,1,2.44V80a3.46,3.46,0,0,1-1,2.44l-.71.71a3.47,3.47,0,0,1-2.45,1h0a86.22,86.22,0,0,0-86.22,86.22v60.14A164.35,164.35,0,0,1,61.45,394.91H4.17a3.46,3.46,0,0,1-2.44-1L1,393.18a3.45,3.45,0,0,1-1-2.44V318.38a5.14,5.14,0,0,1,5.15-5.15H53.21A86.23,86.23,0,0,0,139.44,227V169.87A164.35,164.35,0,0,1,303.79,5.52H312a3.46,3.46,0,0,1,2.45,1ZM632.49,314.6a4.68,4.68,0,0,0-3.31-1.37H446.84a4.68,4.68,0,0,1-4.68-4.67V233a4.68,4.68,0,0,1,4.68-4.67H574.41a4.72,4.72,0,0,0,3.31-1.37h0a4.68,4.68,0,0,0,1.37-3.31V156.33a4.65,4.65,0,0,0-1.37-3.3h0a4.68,4.68,0,0,0-3.31-1.37H446.84a4.68,4.68,0,0,1-4.68-4.68V87.87a4.68,4.68,0,0,1,4.68-4.67H623.71a4.7,4.7,0,0,0,3.3-1.37h0a4.68,4.68,0,0,0,1.37-3.31V11.19A4.65,4.65,0,0,0,627,7.89h0a4.65,4.65,0,0,0-3.3-1.37H370.16a4.68,4.68,0,0,0-3.31,1.37h0a4.69,4.69,0,0,0-1.36,3.3v374a4.71,4.71,0,0,0,1.36,3.31h0a4.68,4.68,0,0,0,3.31,1.37h259a4.68,4.68,0,0,0,3.31-1.37h0a4.68,4.68,0,0,0,1.37-3.31V317.91a4.68,4.68,0,0,0-1.37-3.31Zm273.84,0a4.64,4.64,0,0,0-3.3-1.37H764.5a4.67,4.67,0,0,1-4.67-4.67V11.19a4.7,4.7,0,0,0-1.37-3.3h0a4.68,4.68,0,0,0-3.31-1.37H687.82a4.64,4.64,0,0,0-3.3,1.37h0a4.65,4.65,0,0,0-1.37,3.3v374a4.68,4.68,0,0,0,1.37,3.31h0a4.64,4.64,0,0,0,3.3,1.37H903a4.64,4.64,0,0,0,3.3-1.37h0a4.68,4.68,0,0,0,1.37-3.31V317.91a4.68,4.68,0,0,0-1.37-3.31ZM1291.1,198.21c0,105.71-84.9,191.7-202.65,191.7H959.74L957,387.17V9.26l2.74-2.74h128.71C1206.2,6.52,1291.1,92.51,1291.1,198.21Zm-82.16,0c0-68.46-49.29-115-120.49-115h-54.77v230h54.77C1159.65,313.23,1208.94,266.68,1208.94,198.21ZM1590,190.06a8.92,8.92,0,0,1,1.45,5.13,22,22,0,0,1-.86,6.14c-2.33,8.08-9.1,13.3-17.24,13.3A19.48,19.48,0,0,1,1554.3,199a15.11,15.11,0,0,1-.37-3.94c.06-3.3,2.46-6.21,7.14-8.64a26.69,26.69,0,0,1,24.59,0,11.57,11.57,0,0,1,4.36,3.64Zm-7.92,9.4a8.78,8.78,0,0,0-17.47,0,.82.82,0,0,0,.81.9h15.85A.82.82,0,0,0,1582.1,199.46Zm-65.42-4.4a21,21,0,0,1-.37,3.94,19.48,19.48,0,0,1-19.06,15.63c-8,0-14.51-4.85-17-12.65a21.78,21.78,0,0,1-1-6.79,9,9,0,0,1,1.37-5h0a11.43,11.43,0,0,1,4.43-3.74,26.69,26.69,0,0,1,24.59,0C1514.23,188.85,1516.62,191.76,1516.68,195.06Zm-10.69,4.4a8.79,8.79,0,0,0-17.48,0,.82.82,0,0,0,.82.9h15.84A.83.83,0,0,0,1506,199.46Zm221.71-2c0,109.08-88.43,197.5-197.5,197.5s-197.5-88.42-197.5-197.5S1421.12,0,1530.2,0,1727.7,88.42,1727.7,197.5Zm-195,41.89v4.48c0,6.22-5.57,10.91-13,10.91a13.1,13.1,0,0,1-12.77-9.29,2.53,2.53,0,0,0-3.09-1.75,2.5,2.5,0,0,0-1.76,3.07,18.09,18.09,0,0,0,17.62,13,20.76,20.76,0,0,0,7.83-1.5c6.07,4.44,12.5,3.08,15.62.12a21,21,0,0,0,7.56,1.38,18.08,18.08,0,0,0,17.62-13,2.51,2.51,0,0,0-4.85-1.32,13.1,13.1,0,0,1-12.77,9.29c-7.43,0-13-4.69-13-10.91v-4.46c3.67-.71,6.49-3.22,8.12-7.26a15.76,15.76,0,0,0,9.35.71,6.63,6.63,0,0,0,4.7-8,2.51,2.51,0,1,0-4.88,1.2,1.6,1.6,0,0,1-1.07,2,10.45,10.45,0,0,1-6.56-.65,4.27,4.27,0,0,0-3.53-.13,4.39,4.39,0,0,0-2.49,2.59c-1.71,4.8-4.83,4.8-5.86,4.8h-.49c-1,0-4.15,0-5.86-4.8a4.36,4.36,0,0,0-2.49-2.59,4.27,4.27,0,0,0-3.53.13,10.45,10.45,0,0,1-6.56.65,1.6,1.6,0,0,1-1.07-2,2.51,2.51,0,1,0-4.87-1.2,6.63,6.63,0,0,0,4.7,8,15.73,15.73,0,0,0,9.34-.71C1526.33,236.16,1529.13,238.66,1532.75,239.39Zm2.8,37.12a33.08,33.08,0,0,0,16.33-4.31,2.51,2.51,0,1,0-2.49-4.37,28,28,0,0,1-13.84,3.65h-.49a28,28,0,0,1-13.84-3.65,2.51,2.51,0,0,0-2.48,4.37,33,33,0,0,0,16.32,4.31Zm109.14-77.86a113.74,113.74,0,0,0-33.53-82.11,115.5,115.5,0,0,0-15.34-12.89,3,3,0,0,1-1.21-1.88,83.63,83.63,0,0,0-11.43-28.45A93.44,93.44,0,0,0,1566.1,53a5.66,5.66,0,0,0-9.37,4.31s0,11.7,0,25a3,3,0,0,1-3.6,3,115.31,115.31,0,0,0-23-2.3q-4,0-8,.27a3,3,0,0,1-3.18-3V59.56a5.89,5.89,0,0,0-4.69-5.87,5.76,5.76,0,0,0-4,.78c-5.9,3.68-18.07,13.7-24.58,36.23a3.06,3.06,0,0,1-1.7,2,113.47,113.47,0,0,0-16.29,8.82,3,3,0,0,1-2.48.37,12.25,12.25,0,0,0-3.09-.51,10.06,10.06,0,0,1,2.11-7l1.2-1.71a3.49,3.49,0,0,0-1.88-5.36l-2-.59a10.39,10.39,0,0,0-3-.42,14,14,0,0,0-6.19,1.53c-2.26,1.12-9.43,5.52-9.59,16a12.74,12.74,0,0,0-4.19,17.17,2.92,2.92,0,0,1-.08,3.08,12.71,12.71,0,0,0-2.06,7.57,114.6,114.6,0,0,0,12,146.2,117.5,117.5,0,0,0,11.8,10.47,38.16,38.16,0,0,1,14.55,34.41c-1.48,13.39-3.25,29-4.24,36.58a.52.52,0,0,0,.67.57,263.7,263.7,0,0,0,8.4-29.67c1.75-8,3.46-17.19,4.89-27.54h0a287.23,287.23,0,0,0,2.63-30.59l-9.71-11.72a20.63,20.63,0,0,1-4.64-15.33c.44-4.36,2.61-22.94,4.15-36.86A22.86,22.86,0,0,0,1497.25,220a24.85,24.85,0,0,0,23.69-17.44,19,19,0,0,0,.74-4.1c1.38-5.59,7.29-9.17,13.63-9.19s12.25,3.6,13.62,9.19a18.4,18.4,0,0,0,.75,4.1A24.83,24.83,0,0,0,1573.37,220a22.73,22.73,0,0,0,20.42-12.28c1.49,14,3.46,32.94,3.91,37.27a20.71,20.71,0,0,1-4.64,15.33L1583.34,272l-.19,27.05h0l.51,56.48a1.14,1.14,0,0,0,2.27.13l8-54.9a21.93,21.93,0,0,1,7.89-13.94,117.65,117.65,0,0,0,11.53-10.63A114.11,114.11,0,0,0,1644.69,198.65Zm-82.88-82.83.2.45v2.39a1.33,1.33,0,0,0,1.56,1.31c2.27-.37,6.49-.67,9.09,1.71,2.78,2.55,4.7,5.67,4.56,9.44a1.35,1.35,0,0,0,1.23,1.41c1.84.16,5.11.68,7,2.42a.68.68,0,0,0,1.08-.16,41.49,41.49,0,0,0,4.72-18.26c0-33.25-22.85-55.1-28.2-59.76a.85.85,0,0,0-1.3.55s0,14.81,0,30.07C1561.79,98.46,1561.81,109.76,1561.81,115.82Zm-74.76-2.38a.66.66,0,0,0,1.1.42,11.51,11.51,0,0,1,4.26-2.36,13,13,0,0,1,9.58,1.25.66.66,0,0,0,.91-.28,11.76,11.76,0,0,1,8.58-6.48,11.55,11.55,0,0,1,2.09-.17.68.68,0,0,0,.68-.69V59.26a.7.7,0,0,0-.93-.65.79.79,0,0,0-.33.1c-4.52,2.82-15.36,11.34-21.7,31a102.51,102.51,0,0,0-4.44,23.6.61.61,0,0,0,0,.24A1.22,1.22,0,0,0,1487.05,113.44Zm80.67,65.12a31.38,31.38,0,0,1,5.64-.51,32.1,32.1,0,0,1,14.78,3.61,21,21,0,0,1,2.66,1.65v-.17l.2.13-.79-25a5.52,5.52,0,0,0-3.5-5,3.9,3.9,0,0,1-2.2-2.18,4,4,0,0,1,0-3.18c1-2.14,1.68-5.29-.26-8.18a7.93,7.93,0,0,0-.7-.88,7.57,7.57,0,0,0-6.13-2.32,4.06,4.06,0,0,1-4.34-4.65,7.11,7.11,0,0,0-2.81-6.93,7.72,7.72,0,0,0-6.63-.89,5.72,5.72,0,0,1-4.1-.38c-1.77-.84-1.59-3.47-1.59-3.69a6.2,6.2,0,0,0-4.54-5.49,11.93,11.93,0,0,0-5.1-.39h-.1c-.29,0-.57.1-.85.17a7.11,7.11,0,0,0-2.61,1.11,4.26,4.26,0,0,1-1.12.58l-.08,0-.35.09a4.14,4.14,0,0,1-1.68-.06,4.06,4.06,0,0,1-2.67-2.25,7.19,7.19,0,0,0-1.58-2.27,8,8,0,0,0-11.84.85,4.05,4.05,0,0,1-2.16,1.46,3.88,3.88,0,0,1-.75.11,4.05,4.05,0,0,1-3.2-1.41,7.81,7.81,0,0,0-5.28-2.65,8.3,8.3,0,0,0-4.55,1,7.62,7.62,0,0,0-3.22,3.82,4.07,4.07,0,0,1-3.31,2.45,4,4,0,0,1-2.72-.74,7.74,7.74,0,0,0-10.46,1.5,4.17,4.17,0,0,1-1.25,1l-.2,0a4.69,4.69,0,0,1-.8.34,3.79,3.79,0,0,1-.66.11,4,4,0,0,1-3.36-1.42,7.8,7.8,0,0,0-5-2.64,7.59,7.59,0,0,0-2.18.07l-.42.08h0a6,6,0,0,0-1,.3,4.41,4.41,0,0,1-.71.2,4,4,0,0,1-4.6-3.32,7.76,7.76,0,0,0-7.88-6.44h-.14a4,4,0,0,1-3.85-3.06c-.56-2.29-.85-6.71,2.74-11.84a6.74,6.74,0,0,0-3.48,0,9.49,9.49,0,0,0-2.27.8c-1.66.82-7.06,4.16-6.8,12.51a3.17,3.17,0,0,1-1.68,2.91,7.81,7.81,0,0,0-3.79,9.63,8.22,8.22,0,0,0,1.72,2.66,4.32,4.32,0,0,1,.73,1.26,4,4,0,0,1-1,4.24,7.77,7.77,0,0,0,.74,11.77,4,4,0,0,1,.67,5.45,7.73,7.73,0,0,0-1.41,6.2l.11.48a7.81,7.81,0,0,0,4,4.92,4,4,0,0,1,1.89,5.27,7.74,7.74,0,0,0,5.44,10.87,4,4,0,0,1,3.14,4.62,7.72,7.72,0,0,0,1.67,6.38l.19.21a7.69,7.69,0,0,0,5.72,2.57,7.16,7.16,0,0,0,1.3-.13,7,7,0,0,0,1.17-.25,14.5,14.5,0,0,1,2.2-.82l.14,0a.76.76,0,0,0,.16,0,5.2,5.2,0,0,1,.68-.06,6,6,0,0,1,2.37.58,7,7,0,0,0,2.75.65,4.6,4.6,0,0,0,.84-.08c1.6-.23,2.9-1.26,5-2.37a31.39,31.39,0,0,1,8.9-3.09,32,32,0,0,1,20.45,3.13c4.34,2.26,6.88,4.82,8.32,7.29l.13-.13.06.09A19.49,19.49,0,0,1,1531,183a22.46,22.46,0,0,1,4.23-.44h.22a20,20,0,0,1,14.86,6.39.67.67,0,0,1,.09-.14.94.94,0,0,1,.1.1c1.44-2.47,4-5,8.32-7.29A31.82,31.82,0,0,1,1567.72,178.56ZM1869.29,279c-9.83-6.79-22.93-11.24-38.24-11.24-38.75,0-65,28-65,62.5s26.25,62.5,65,62.5c15.31,0,28.41-4.44,38.24-11.23a4,4,0,0,0,1.76-3.32V349.08a1.5,1.5,0,0,0-2.2-1.33c-5.9,3.15-22.6,11.28-37.8,11.28-18.75,0-30-12.5-30-28.75s11.25-28.75,30-28.75c14.9,0,30.68,7.49,37.07,10.87a2,2,0,0,0,2.93-1.77V282.34A4,4,0,0,0,1869.29,279Zm-152.74,73.51a19,19,0,1,0,19,19A19,19,0,0,0,1716.55,352.53Zm302.5-22.25c0,35-27.5,62.5-62.5,62.5s-62.5-27.5-62.5-62.5,27.5-62.5,62.5-62.5S2019.05,295.28,2019.05,330.28Zm-35,0c0-16.25-11.25-28.75-27.5-28.75s-27.5,12.5-27.5,28.75S1940.3,359,1956.55,359,1984.05,346.53,1984.05,330.28Zm206.24-62.5c-13.75,0-28.75,6.25-40,16.25-8.75-10-22.5-16.25-42.5-16.25-11.25,0-20,3.75-28.75,8.75v-2.86a2.13,2.13,0,0,0-2.13-2.14h-30.73a2.15,2.15,0,0,0-2.14,2.14V386.9a2.13,2.13,0,0,0,2.14,2.13h30.73a2.12,2.12,0,0,0,2.13-2.13V314.45a1,1,0,0,1,.3-.71c7.4-7.34,14.85-12.21,25.95-12.21,11.25,0,21.25,7.5,21.25,27.5V386.9a2.13,2.13,0,0,0,2.14,2.13h30.73a2.12,2.12,0,0,0,2.13-2.13V314.45a1,1,0,0,1,.3-.71c7.4-7.34,14.85-12.21,25.95-12.21,11.25,0,21.25,7.5,21.25,27.5V386.9a2.13,2.13,0,0,0,2.14,2.13h30.73a2.12,2.12,0,0,0,2.13-2.13V322.78C2244,289,2227.79,267.78,2190.29,267.78Z"/></g></g></svg>