<svg height="511pt" viewBox="-36 0 511 511.99968" width="511pt" xmlns="http://www.w3.org/2000/svg"><path d="m369.265625 84.160156c0-2.640625-1.066406-5.210937-2.929687-7.070312-1.859376-1.859375-4.429688-2.929688-7.070313-2.929688-2.628906 0-5.207031 1.070313-7.066406 2.929688-1.863281 1.859375-2.933594 4.429687-2.933594 7.070312 0 2.628906 1.070313 5.210938 2.933594 7.070313 1.859375 1.859375 4.4375 2.929687 7.066406 2.929687 2.632813 0 5.210937-1.070312 7.070313-2.929687 1.863281-1.859375 2.929687-4.441407 2.929687-7.070313zm0 0"/><path d="m439.238281 95.597656c-.980469-9.480468-5.296875-18.226562-12.113281-24.902344 1.09375-3.71875 1.65625-7.601562 1.65625-11.5 0-22.152343-17.808594-40.226562-39.863281-40.652343-6.949219-5.109375-15.351563-7.886719-24.066407-7.886719-9.609374 0-18.816406 3.425781-26.050781 9.457031l-22.96875-17.988281c-2.363281-1.847656-5.4375-2.539062-8.363281-1.878906-2.25.503906-4.234375 1.769531-5.644531 3.546875-14.097657 17.648437-16.042969 41.511719-5.429688 60.992187-2.988281 7.859375-4.5 16.128906-4.5 24.65625v62.847656c0 6.242188-5.078125 11.324219-11.324219 11.324219h-161.640624c-65.304688 0-118.429688 53.128907-118.429688 118.429688 0 35.976562 10.429688 70.726562 30.195312 100.707031v107.058594c0 12.234375 9.957032 22.191406 22.191407 22.191406h27.042969c6.53125 0 12.699218-2.855469 16.925781-7.835938 4.222656-4.972656 6.035156-11.519531 4.972656-17.953124-1.871094-11.351563-2.816406-22.941407-2.816406-34.445313v-47.464844l31.210937-34.679687c4.320313 1.03125 8.808594 1.585937 13.402344 1.585937h86.832031c2.378907 7.851563 5.417969 15.496094 9.105469 22.816407l3.640625 7.230468v86.402344c0 13.421875 10.921875 24.34375 24.34375 24.34375h26.742187c7.691407 0 14.761719-3.515625 19.402344-9.644531 4.644532-6.125 6.113282-13.882813 4.035156-21.285157l-2.433593-8.660156v-92.324218l.023437-.21875c1.523438-13.3125 8.695313-25.773438 19.679688-34.195313 30.898437-23.683594 48.613281-59.570313 48.613281-98.457031 0-5.519532-4.476563-10-10-10-5.519531 0-10 4.480468-10 10 0 32.613281-14.863281 62.714844-40.78125 82.585937-15.265625 11.703125-25.246094 29.121094-27.382813 47.789063l-.089843.785156c-.042969.378906-.0625.757812-.0625 1.140625v94.269531c0 .914063.125 1.824219.371093 2.707032l2.808594 9.988281c.507813 1.808593-.234375 3.15625-.722656 3.796875-.484375.644531-1.582031 1.722656-3.460938 1.722656h-26.742187c-2.394531 0-4.34375-1.949219-4.34375-4.34375v-88.777344c0-1.5625-.367187-3.101562-1.066406-4.496094l-4.710938-9.355468c-8.628906-17.136719-13.1875-36.335938-13.1875-55.527344 0-5.519531-4.480469-10-10-10-5.523437 0-10 4.480469-10 10 0 7.265625.570313 14.527344 1.675781 21.707031h-82.285156c-18.125 0-33.789062-12.910156-37.253906-30.699219h-.011719c-1.074219-5.289062-6.171875-8.792968-11.519531-7.851562-5.441406.957031-9.074219 6.144531-8.117188 11.582031.007813.03125.015626.058594.023438.089844h-.003906c2.996094 15.398437 11.984375 28.394531 24.242187 36.769531l-29.40625 32.675782c-1.652343 1.835937-2.566406 4.21875-2.566406 6.6875v51.304687c0 12.585937 1.035156 25.269531 3.082031 37.695313.136719.820312-.191406 1.410156-.488281 1.761718-.300781.355469-.832031.773438-1.675781.773438h-27.042969c-1.210937 0-2.195313-.980469-2.195313-2.191406v-110.101563c0-2.011719-.605468-3.980469-1.742187-5.644531-18.613281-27.222656-28.453125-59.039063-28.453125-92.015625 0-54.273438 44.15625-98.429688 98.429688-98.429688h161.640624c17.273438 0 31.328126-14.054687 31.328126-31.328125v-62.84375c0-7.414062 1.597656-14.546875 4.75-21.207031 1.609374-3.398437 1.144531-7.308594-.988282-10.203125-6.71875-10.066406-7.761718-22.472656-3.28125-33.207031l21.277344 16.667969c2.152344 1.683593 4.902344 2.414062 7.613281 2.019531 2.703125-.394531 5.132813-1.882813 6.710938-4.113281 3.878906-5.476563 10.1875-8.742188 16.871093-8.742188 5.160157 0 10.101563 1.914062 13.910157 5.386719 2.058593 1.875 4.800781 2.800781 7.582031 2.574219.664062-.054688 1.246094-.082032 1.777344-.082032 11.394531 0 20.660156 9.265625 20.660156 20.660156 0 3.488282-.835938 6.796876-2.480469 9.832032-2.46875 4.546875-1.0625 10.222656 3.242188 13.089844.019531.015624.074219.050781.09375.0625 5.527343 3.628906 9.066406 9.273437 9.710937 15.484374.40625 3.9375-.15625 7.78125-1.542968 11.28125-4.378907-.875-8.433594-3.117187-11.480469-6.398437-3.757813-4.046875-10.085938-4.28125-14.132813-.523437-4.046875 3.757812-4.28125 10.085937-.523437 14.132812 2.632812 2.835938 5.65625 5.269531 8.945312 7.253906-1.777343.371094-3.632812.570313-5.539062.570313h-21.460938c-2.652343 0-5.195312 1.054687-7.070312 2.929687s-2.929688 4.417969-2.929688 7.070313v32.6875c0 5.523437 4.480469 10 10 10 5.523438 0 10-4.476563 10-10v-22.6875h11.460938c8.429687 0 16.484375-2.191407 23.292969-6.347657 14.417968-8.789062 22.609374-25.289062 20.871093-42.035156zm0 0"/><path d="m373.609375 196.667969c-2.632813 0-5.210937 1.0625-7.070313 2.933593-1.859374 1.859376-2.929687 4.4375-2.929687 7.066407 0 2.632812 1.066406 5.210937 2.929687 7.070312 1.859376 1.859375 4.4375 2.929688 7.070313 2.929688 2.636719 0 5.207031-1.066407 7.066406-2.929688 1.871094-1.867187 2.933594-4.4375 2.933594-7.070312 0-2.628907-1.0625-5.207031-2.933594-7.066407-1.859375-1.871093-4.429687-2.933593-7.066406-2.933593zm0 0"/><path d="m134.988281 203.667969c-5.523437 0-10 4.476562-10 10 0 5.519531 4.476563 10 10 10h69.25c5.519531 0 10-4.480469 10-10 0-5.523438-4.480469-10-10-10zm0 0"/><path d="m237.167969 206.597656c-1.859375 1.859375-2.929688 4.433594-2.929688 7.070313 0 2.628906 1.070313 5.210937 2.929688 7.070312s4.429687 2.929688 7.070312 2.929688c2.628907 0 5.210938-1.070313 7.070313-2.929688 1.859375-1.871093 2.929687-4.441406 2.929687-7.070312 0-2.640625-1.070312-5.210938-2.929687-7.070313-1.859375-1.867187-4.441406-2.929687-7.070313-2.929687-2.640625 0-5.210937 1.0625-7.070312 2.929687zm0 0"/></svg>