<svg id="Layer_1" data-name="Layer 1" xmlns="http://www.w3.org/2000/svg" viewBox="0 0 995.39 995.39"><defs><style>.cls-1{fill:#2b252c;}.cls-2{fill:#64b5e3;}</style></defs><title>Floof, the alpaca</title><path class="cls-1" d="M561.84,587.62a4.41,4.41,0,0,0-5.4,3.1h0v0l0,.18c0,.16-.14.43-.26.78a31,31,0,0,1-1.26,3,32.81,32.81,0,0,1-6,8.62,28,28,0,0,1-7,5.28,30.66,30.66,0,0,1-14.44,3.31A33.86,33.86,0,0,1,510,607.39a25.17,25.17,0,0,1-10.18-11,22.45,22.45,0,0,1-2.08-9.49V576.19a20.87,20.87,0,0,0,11.77-5.89A28.52,28.52,0,0,0,516,559.7a28.66,28.66,0,0,0,6.19,2.06,35.57,35.57,0,0,0,7.34.79,30.35,30.35,0,0,0,7.29-.87,13,13,0,0,0,7.25-4.91,13.59,13.59,0,0,0,2.26-11.35,4.41,4.41,0,1,0-8.56,2.11,5,5,0,0,1,.13,1.15,4.74,4.74,0,0,1-.93,2.85,4.1,4.1,0,0,1-2.34,1.6,21,21,0,0,1-5.1.6,26,26,0,0,1-5.47-.59,19.78,19.78,0,0,1-4.56-1.53h0a8.29,8.29,0,0,0-3.69-.87,8.51,8.51,0,0,0-8,5.65,22.69,22.69,0,0,1-3.05,5.92,12.89,12.89,0,0,1-5.3,4.3,13.73,13.73,0,0,1-5.53,1h-1.07a13.77,13.77,0,0,1-5.53-1,11.88,11.88,0,0,1-3.81-2.58,20.34,20.34,0,0,1-4.54-7.64h0a8.51,8.51,0,0,0-8-5.65,8.3,8.3,0,0,0-3.7.87,19.85,19.85,0,0,1-4.55,1.53,26.13,26.13,0,0,1-5.48.59,21,21,0,0,1-5.1-.6,4.13,4.13,0,0,1-2.34-1.6,4.81,4.81,0,0,1-.93-2.85,4.53,4.53,0,0,1,.14-1.15h0a4.41,4.41,0,0,0-8.57-2.11,14,14,0,0,0-.39,3.26,13.65,13.65,0,0,0,2.65,8.09,13,13,0,0,0,7.25,4.91,30.35,30.35,0,0,0,7.29.87,35.57,35.57,0,0,0,7.34-.79,28.48,28.48,0,0,0,6.19-2.06,31,31,0,0,0,4.15,7.87,21.67,21.67,0,0,0,8.93,7.16,22.16,22.16,0,0,0,5,1.43v10.7a22.79,22.79,0,0,1-2.05,9.51,24.16,24.16,0,0,1-5.85,7.92c-5.07,4.57-12.43,7.57-21.58,7.58A32.06,32.06,0,0,1,448.26,610a27,27,0,0,1-7.88-4.47,32.16,32.16,0,0,1-8.55-11.08,25,25,0,0,1-1.47-3.73h0a4.41,4.41,0,0,0-8.52,2.29A32.36,32.36,0,0,0,424,598.5a41.82,41.82,0,0,0,7.6,10.93,36.72,36.72,0,0,0,9.28,7,39.5,39.5,0,0,0,18.53,4.31,44.32,44.32,0,0,0,16.17-3c14.16,11.09,29.46,7.41,36.1.2a44.83,44.83,0,0,0,15.72,2.75A40.83,40.83,0,0,0,542,618.15a36.15,36.15,0,0,0,10.58-6.22,41.12,41.12,0,0,0,10.74-14.42A31.07,31.07,0,0,0,565,593h0A4.4,4.4,0,0,0,561.84,587.62Z"/><path class="cls-1" d="M576.82,472.24a19.24,19.24,0,0,0-19.15,17.28,1.8,1.8,0,0,0,1.79,2h34.72a1.8,1.8,0,0,0,1.79-2A19.24,19.24,0,0,0,576.82,472.24Z"/><path class="cls-1" d="M524.81,640.35a62.23,62.23,0,0,1-30.88,8.15h0a4.53,4.53,0,0,0-.53,0,4.71,4.71,0,0,0-.54,0A62.26,62.26,0,0,1,462,640.35a4.41,4.41,0,0,0-4.36,7.67,71.12,71.12,0,0,0,35.24,9.3,4.69,4.69,0,0,0,.54-.06,4.52,4.52,0,0,0,.53.06,71.12,71.12,0,0,0,35.24-9.3,4.41,4.41,0,1,0-4.36-7.67Z"/><path class="cls-1" d="M410,472.24a19.25,19.25,0,0,0-19.15,17.28,1.8,1.8,0,0,0,1.79,2h34.73a1.81,1.81,0,0,0,1.79-2A19.26,19.26,0,0,0,410,472.24Z"/><path class="cls-2" d="M487.19,124.1c-206.33,0-373.6,167.27-373.6,373.6,0,166,108.32,306.77,258.14,355.41,10.71-34.48,16.38-83.15,16.38-157.3V648.6l-21.3-25.7a45.26,45.26,0,0,1-10.18-33.59c1-9.57,5.73-50.29,9.11-80.8a50.1,50.1,0,0,0,44.23,26,54.46,54.46,0,0,0,53.78-46.31,5.93,5.93,0,0,0,.43-1.18,27.29,27.29,0,0,1,3.95-8.92,26.7,26.7,0,0,1,6.54-6.66,32.21,32.21,0,0,1,18.74-5.76A33.32,33.32,0,0,1,508,469a27.43,27.43,0,0,1,10.63,9.11,27.08,27.08,0,0,1,4,8.92,6.05,6.05,0,0,0,.44,1.19,54.45,54.45,0,0,0,53.77,46.3,49.85,49.85,0,0,0,44.78-26.91c3.27,30.74,7.58,72.19,8.56,81.69A45.3,45.3,0,0,1,620,622.9l-21.3,25.7,4.6,84.88c1.94,25.21.07,73.11-5.26,121.09C750.23,807.35,860.78,665.43,860.78,497.7,860.78,291.37,693.52,124.1,487.19,124.1Zm66.55,52.73c11.72,10.21,61.82,58.12,61.82,131,0,15.22-5,29.24-10.36,40a1.48,1.48,0,0,1-2.36.36c-4.1-3.8-11.27-4.95-15.3-5.29a3,3,0,0,1-2.69-3.11c.3-8.26-3.91-15.1-10-20.68-5.69-5.22-15-4.55-19.92-3.74a2.93,2.93,0,0,1-3.42-2.88c0-21.61-.19-134.55-.19-134.55A1.47,1.47,0,0,1,553.74,176.83ZM444.47,181a1.52,1.52,0,0,1,2.34,1.29V282.84a1.5,1.5,0,0,1-1.48,1.51,25.78,25.78,0,0,0-23.39,14.57,1.45,1.45,0,0,1-2,.63c-3.21-1.74-11.69-5.49-21-2.74a25,25,0,0,0-9.33,5.17,1.46,1.46,0,0,1-2.43-1.2C393.46,219.7,431.27,189.24,444.47,181ZM410,522.77c-17.49,0-31.81-10.62-37.36-27.72a47.64,47.64,0,0,1-2.32-14.89,19.52,19.52,0,0,1,3-11h0A24.88,24.88,0,0,1,383,461a58.54,58.54,0,0,1,53.91,0c10.4,5.4,15.67,11.87,15.67,19.22A42.66,42.66,0,0,1,410,522.77Zm115.51-55a38.93,38.93,0,0,0-6.5-5.88A43.85,43.85,0,0,0,493.62,454H493a45,45,0,0,0-19.47,4.51,39.63,39.63,0,0,0-12.26,9.32c-3-5.81-8.68-11.93-19-17.27a69.86,69.86,0,0,0-64.76,0c-7.3,3.86-10.17,7.33-18.38,3.86-5-2.1-7.27-1.43-12.59.89a16.86,16.86,0,0,1-17.52-4.88l-.42-.46a17,17,0,0,1-3.67-14,8.75,8.75,0,0,0-6.89-10.12A17,17,0,0,1,306.2,402a8.78,8.78,0,0,0-4.14-11.57,17,17,0,0,1-8.87-10.78l-.13-.59A17,17,0,0,1,296,365a8.81,8.81,0,0,0-1.65-12.16,17,17,0,0,1-1.4-25.62,8.83,8.83,0,0,0,.31-12.31,17,17,0,0,1,4.52-26.58,7.33,7.33,0,0,0,3.93-6.7c-.48-18.15,11.29-25.42,14.91-27.22,4.3-2.14,8.81-2.73,12.18-1.74-7.88,11.24-7.22,21-6,26a8.77,8.77,0,0,0,8.45,6.69h.31a17,17,0,0,1,17.26,14.1,8.87,8.87,0,0,0,11.76,6.87,16.69,16.69,0,0,1,19,4.76,8.88,8.88,0,0,0,13.74-.27,17,17,0,0,1,23-3.21,8.62,8.62,0,0,0,7.39,1.25,9,9,0,0,0,5.8-5.21,16.93,16.93,0,0,1,12.78-10.24,16.39,16.39,0,0,1,4.17-.2A17.09,17.09,0,0,1,458,299a8.85,8.85,0,0,0,13.81-.45A17,17,0,0,1,487.22,292a16.81,16.81,0,0,1,13.6,9.81,8.87,8.87,0,0,0,13.37,3.47c4.29-3.17,11.75-3.92,18.56-1.88,5.67,1.71,10,6.88,10,12,0,.5-.41,6.26,3.47,8.1a12.7,12.7,0,0,0,9,.84,16.9,16.9,0,0,1,14.52,1.93,15.6,15.6,0,0,1,6.17,15.2,8.86,8.86,0,0,0,9.52,10.19,16.56,16.56,0,0,1,13.42,5.09,15,15,0,0,1,1.54,1.93c4.25,6.33,2.66,13.24.58,17.92a8.86,8.86,0,0,0-.12,7,8.52,8.52,0,0,0,4.82,4.78,12.12,12.12,0,0,1,7.68,10.91L615,454.13a44.05,44.05,0,0,0-5.84-3.62,70.25,70.25,0,0,0-64.75,0C534.17,455.85,528.48,462,525.48,467.78Zm89.14,25.85c-5.11,17.71-19.94,29.14-37.8,29.14a42.65,42.65,0,0,1-42.61-42.61c0-7.35,5.27-13.82,15.66-19.22a58.5,58.5,0,0,1,53.91,0,25.38,25.38,0,0,1,9.55,8h0a19.57,19.57,0,0,1,3.17,11.25A48.32,48.32,0,0,1,614.62,493.63Z"/></svg>