<svg id="Layer_1" data-name="Layer 1" xmlns="http://www.w3.org/2000/svg" viewBox="0 0 2600 995.39"><defs><style>.cls-1{fill:#2b252c;}.cls-2{fill:#fff;}</style></defs><title>seldo-</title><path class="cls-1" d="M1710.73,547.73v-4.47c-3.63-.74-6.42-3.24-8-7.25a15.77,15.77,0,0,1-9.35.71,6.64,6.64,0,0,1-4.7-8,2.51,2.51,0,1,1,4.88,1.2,1.62,1.62,0,0,0,1.07,2,10.52,10.52,0,0,0,6.56-.66,4.27,4.27,0,0,1,3.53-.13,4.39,4.39,0,0,1,2.49,2.59c1.71,4.81,4.83,4.81,5.86,4.81h.49c1,0,4.15,0,5.86-4.81a4.4,4.4,0,0,1,2.48-2.59,4.33,4.33,0,0,1,3.54.13,10.52,10.52,0,0,0,6.56.66,1.62,1.62,0,0,0,1.07-2,2.51,2.51,0,1,1,4.87-1.2,6.63,6.63,0,0,1-4.7,8,15.73,15.73,0,0,1-9.34-.71c-1.63,4-4.46,6.55-8.12,7.26v4.46c0,6.22,5.6,10.91,13,10.91a13.1,13.1,0,0,0,12.77-9.29,2.51,2.51,0,0,1,4.85,1.32,18.09,18.09,0,0,1-17.62,13,21,21,0,0,1-7.56-1.37c-3.13,3-9.55,4.31-15.62-.13a20.65,20.65,0,0,1-7.83,1.5,18.08,18.08,0,0,1-17.62-13,2.51,2.51,0,0,1,4.84-1.32,13.14,13.14,0,0,0,12.78,9.29C1705.16,558.64,1710.73,554,1710.73,547.73Zm40.61-52.29a8.79,8.79,0,0,0-8.74,7.88.83.83,0,0,0,.82.9h15.84a.82.82,0,0,0,.82-.9A8.78,8.78,0,0,0,1751.34,495.44Zm-20.55,77.2a2.5,2.5,0,0,0-3.42-.94,28.11,28.11,0,0,1-13.84,3.65H1713a28.11,28.11,0,0,1-13.84-3.65,2.51,2.51,0,0,0-2.48,4.36,33,33,0,0,0,16.32,4.31h.49a33,33,0,0,0,16.32-4.31A2.5,2.5,0,0,0,1730.79,572.64Zm-55.56-77.2a8.78,8.78,0,0,0-8.74,7.88.82.82,0,0,0,.81.9h15.85a.82.82,0,0,0,.81-.9A8.78,8.78,0,0,0,1675.23,495.44Z"/><path class="cls-2" d="M493.16,311.11a3.45,3.45,0,0,1,1,2.44v70.34a3.43,3.43,0,0,1-1,2.44l-.71.72a3.5,3.5,0,0,1-2.45,1h0a86.22,86.22,0,0,0-86.22,86.23v60.13A164.35,164.35,0,0,1,239.43,698.77H182.15a3.46,3.46,0,0,1-2.45-1l-.71-.71a3.46,3.46,0,0,1-1-2.45V622.24a5.15,5.15,0,0,1,5.15-5.15h48.06a86.23,86.23,0,0,0,86.23-86.22V473.73A164.35,164.35,0,0,1,481.77,309.38H490a3.5,3.5,0,0,1,2.45,1ZM810.47,618.46a4.72,4.72,0,0,0-3.31-1.37H624.82a4.67,4.67,0,0,1-4.68-4.67V536.87a4.67,4.67,0,0,1,4.68-4.67H752.39a4.68,4.68,0,0,0,3.31-1.37h0a4.72,4.72,0,0,0,1.37-3.31V460.2a4.72,4.72,0,0,0-1.37-3.31h0a4.68,4.68,0,0,0-3.31-1.37H624.82a4.67,4.67,0,0,1-4.68-4.67V391.73a4.67,4.67,0,0,1,4.68-4.67H801.68a4.68,4.68,0,0,0,3.31-1.37h0a4.68,4.68,0,0,0,1.37-3.31V315.06a4.68,4.68,0,0,0-1.37-3.31h0a4.68,4.68,0,0,0-3.31-1.37H548.14a4.68,4.68,0,0,0-3.31,1.37h0a4.72,4.72,0,0,0-1.37,3.31v374a4.7,4.7,0,0,0,1.37,3.3h0a4.68,4.68,0,0,0,3.31,1.37h259a4.68,4.68,0,0,0,3.31-1.37h0a4.7,4.7,0,0,0,1.37-3.3V621.77a4.72,4.72,0,0,0-1.37-3.31Zm273.84,0a4.64,4.64,0,0,0-3.3-1.37H942.48a4.68,4.68,0,0,1-4.68-4.67V315.06a4.68,4.68,0,0,0-1.37-3.31h0a4.64,4.64,0,0,0-3.3-1.37H865.8a4.64,4.64,0,0,0-3.3,1.37h0a4.71,4.71,0,0,0-1.36,3.31v374a4.65,4.65,0,0,0,1.37,3.3h0a4.64,4.64,0,0,0,3.3,1.37H1081a4.64,4.64,0,0,0,3.3-1.37h0a4.65,4.65,0,0,0,1.37-3.3V621.77a4.68,4.68,0,0,0-1.37-3.31Zm384.77-116.38c0,105.7-84.9,191.69-202.65,191.69H1137.72L1135,691V313.12l2.74-2.74h128.71C1384.18,310.38,1469.08,396.37,1469.08,502.08Zm-82.16,0c0-68.47-49.29-115-120.49-115h-54.77v230h54.77C1337.63,617.09,1386.92,570.54,1386.92,502.08ZM1768,493.92a8.94,8.94,0,0,1,1.45,5.13,22,22,0,0,1-.86,6.14c-2.33,8.08-9.1,13.3-17.25,13.3a19.48,19.48,0,0,1-19.06-15.62,15.15,15.15,0,0,1-.37-3.94c.06-3.31,2.45-6.21,7.14-8.65a26.69,26.69,0,0,1,24.59,0,11.57,11.57,0,0,1,4.36,3.64Zm-7.92,9.4a8.79,8.79,0,0,0-17.48,0,.83.83,0,0,0,.82.9h15.84A.82.82,0,0,0,1760.08,503.32Zm-65.42-4.39a21.07,21.07,0,0,1-.37,3.94,19.48,19.48,0,0,1-19.07,15.62c-8,0-14.51-4.85-17-12.65a21.78,21.78,0,0,1-1.06-6.79,8.87,8.87,0,0,1,1.38-5h0a11.46,11.46,0,0,1,4.43-3.75,26.69,26.69,0,0,1,24.59,0C1692.2,492.72,1694.6,495.62,1694.66,498.93Zm-10.7,4.39a8.78,8.78,0,0,0-17.47,0,.82.82,0,0,0,.81.9h15.85A.82.82,0,0,0,1684,503.32Zm221.71-2c0,109.08-88.42,197.5-197.5,197.5s-197.5-88.42-197.5-197.5,88.43-197.5,197.5-197.5S1905.67,392.29,1905.67,501.36Zm-194.94,41.9v4.47c0,6.22-5.57,10.91-13,10.91a13.14,13.14,0,0,1-12.78-9.29,2.51,2.51,0,0,0-4.84,1.32,18.08,18.08,0,0,0,17.62,13,20.65,20.65,0,0,0,7.83-1.5c6.07,4.44,12.49,3.08,15.62.13a21,21,0,0,0,7.56,1.37,18.09,18.09,0,0,0,17.62-13,2.51,2.51,0,0,0-4.85-1.32,13.1,13.1,0,0,1-12.77,9.29c-7.44,0-13-4.69-13-10.91v-4.46c3.66-.71,6.49-3.21,8.12-7.26a15.73,15.73,0,0,0,9.34.71,6.63,6.63,0,0,0,4.7-8,2.51,2.51,0,1,0-4.87,1.2,1.62,1.62,0,0,1-1.07,2,10.52,10.52,0,0,1-6.56-.66,4.33,4.33,0,0,0-3.54-.13,4.4,4.4,0,0,0-2.48,2.59c-1.71,4.81-4.83,4.81-5.86,4.81H1713c-1,0-4.15,0-5.86-4.81a4.39,4.39,0,0,0-2.49-2.59,4.27,4.27,0,0,0-3.53.13,10.52,10.52,0,0,1-6.56.66,1.62,1.62,0,0,1-1.07-2,2.51,2.51,0,1,0-4.88-1.2,6.64,6.64,0,0,0,4.7,8,15.77,15.77,0,0,0,9.35-.71C1704.31,540,1707.1,542.52,1710.73,543.26Zm2.8,37.11a33,33,0,0,0,16.32-4.31,2.51,2.51,0,1,0-2.48-4.36,28.11,28.11,0,0,1-13.84,3.65H1713a28.11,28.11,0,0,1-13.84-3.65,2.51,2.51,0,0,0-2.48,4.36,33,33,0,0,0,16.32,4.31Zm109.14-77.86a113.79,113.79,0,0,0-33.53-82.11,116.14,116.14,0,0,0-15.34-12.89,3,3,0,0,1-1.21-1.88,83.63,83.63,0,0,0-11.43-28.45,93.44,93.44,0,0,0-17.08-20.3,5.67,5.67,0,0,0-9.37,4.31s0,11.7,0,25a3,3,0,0,1-3.59,3,115.34,115.34,0,0,0-23-2.3q-4,0-8,.27a3,3,0,0,1-3.18-3V363.42a5.88,5.88,0,0,0-4.7-5.86,5.68,5.68,0,0,0-4,.77c-5.9,3.68-18.07,13.71-24.58,36.23a3.06,3.06,0,0,1-1.7,1.95,113.47,113.47,0,0,0-16.29,8.82,3,3,0,0,1-2.48.37,12.33,12.33,0,0,0-3.1-.51,10.1,10.1,0,0,1,2.12-7l1.2-1.72a3.49,3.49,0,0,0-1.88-5.36l-2-.59a10.44,10.44,0,0,0-3-.42,14.11,14.11,0,0,0-6.2,1.53c-2.25,1.12-9.43,5.52-9.58,16a12.74,12.74,0,0,0-4.19,17.17,3,3,0,0,1-.08,3.08,12.74,12.74,0,0,0-2.06,7.58,114.55,114.55,0,0,0,12,146.19,115.2,115.2,0,0,0,11.8,10.47,38.16,38.16,0,0,1,14.55,34.41c-1.49,13.39-3.25,29-4.24,36.58a.51.51,0,0,0,.66.57,261.13,261.13,0,0,0,8.41-29.67c1.74-8,3.46-17.19,4.89-27.54h0a287.23,287.23,0,0,0,2.63-30.59l-9.72-11.72a20.71,20.71,0,0,1-4.64-15.33c.45-4.36,2.62-22.94,4.16-36.86a22.84,22.84,0,0,0,20.17,11.88,24.84,24.84,0,0,0,23.69-17.45,18.4,18.4,0,0,0,.75-4.1c1.37-5.59,7.29-9.17,13.63-9.19s12.25,3.6,13.62,9.19a19.17,19.17,0,0,0,.74,4.11,24.86,24.86,0,0,0,23.69,17.44,22.76,22.76,0,0,0,20.43-12.28c1.49,14,3.46,32.93,3.91,37.26a20.71,20.71,0,0,1-4.64,15.33l-9.72,11.72-.19,27.05h0l.51,56.48a1.13,1.13,0,0,0,2.26.13l8-54.9a21.94,21.94,0,0,1,7.88-13.93,115.52,115.52,0,0,0,11.53-10.64A114.07,114.07,0,0,0,1822.67,502.51Zm-82.88-82.83c.07.15.13.3.2.46v2.39a1.34,1.34,0,0,0,1.56,1.31c2.27-.37,6.49-.67,9.09,1.71,2.77,2.54,4.7,5.66,4.56,9.43a1.36,1.36,0,0,0,1.23,1.42c1.83.15,5.11.68,7,2.41a.68.68,0,0,0,1.08-.16,41.45,41.45,0,0,0,4.72-18.25c0-33.26-22.86-55.11-28.2-59.77a.85.85,0,0,0-1.3.55s0,14.82,0,30.08C1739.77,402.32,1739.78,413.62,1739.79,419.68ZM1665,417.31a.67.67,0,0,0,1.1.42,11.3,11.3,0,0,1,4.26-2.36,12.94,12.94,0,0,1,9.58,1.25.67.67,0,0,0,.91-.29,11.7,11.7,0,0,1,8.58-6.47,11.5,11.5,0,0,1,2.09-.18.68.68,0,0,0,.68-.69V363.13a.7.7,0,0,0-.93-.66.76.76,0,0,0-.34.11c-4.51,2.81-15.35,11.34-21.69,31a102.5,102.5,0,0,0-4.44,23.61.58.58,0,0,0,0,.23Zm80.67,65.11a31.37,31.37,0,0,1,5.64-.5,32.12,32.12,0,0,1,14.78,3.6,22.23,22.23,0,0,1,2.66,1.65V487l.2.13-.79-25a5.54,5.54,0,0,0-3.51-5,3.93,3.93,0,0,1-2.2-2.18,4.08,4.08,0,0,1,.06-3.18c1-2.14,1.68-5.29-.26-8.18a7,7,0,0,0-.71-.88,7.54,7.54,0,0,0-6.12-2.32,4,4,0,0,1-4.34-4.65,7.12,7.12,0,0,0-2.82-6.93,7.73,7.73,0,0,0-6.62-.89,5.75,5.75,0,0,1-4.11-.38c-1.76-.84-1.58-3.46-1.58-3.69a6.19,6.19,0,0,0-4.54-5.48,12,12,0,0,0-5.11-.4h-.09c-.29,0-.58.1-.85.17a7.11,7.11,0,0,0-2.61,1.11,4.12,4.12,0,0,1-1.12.58l-.08,0-.36.08a4.09,4.09,0,0,1-1.67-.06,4,4,0,0,1-2.67-2.25,7.48,7.48,0,0,0-1.58-2.27,8,8,0,0,0-11.84.85,4.19,4.19,0,0,1-2.17,1.47,3.66,3.66,0,0,1-.74.1,4.05,4.05,0,0,1-3.2-1.41,7.81,7.81,0,0,0-5.29-2.65,8.29,8.29,0,0,0-4.54,1,7.66,7.66,0,0,0-3.22,3.82A4.05,4.05,0,0,1,1681,421a4,4,0,0,1-2.72-.73,7.75,7.75,0,0,0-6.7-1.06,7.85,7.85,0,0,0-3.77,2.55,4,4,0,0,1-1.24,1.05l-.21.05a4.55,4.55,0,0,1-.79.33,3.79,3.79,0,0,1-.66.11,4,4,0,0,1-3.36-1.41,7.79,7.79,0,0,0-5-2.65,8,8,0,0,0-2.18.07l-.42.08h0a6,6,0,0,0-1,.3,4.44,4.44,0,0,1-.71.21,4,4,0,0,1-4.61-3.33,7.74,7.74,0,0,0-7.87-6.43h-.14a4,4,0,0,1-3.86-3c-.55-2.29-.85-6.72,2.75-11.85a6.84,6.84,0,0,0-3.48,0,9.34,9.34,0,0,0-2.27.8c-1.66.82-7.06,4.16-6.8,12.51a3.16,3.16,0,0,1-1.68,2.91,7.8,7.8,0,0,0-3.79,9.63,8.4,8.4,0,0,0,1.71,2.67,3.77,3.77,0,0,1,.73,1.25,4,4,0,0,1-1,4.24,7.78,7.78,0,0,0-2.34,5.95,7.7,7.7,0,0,0,3.08,5.82,4,4,0,0,1,.67,5.45,7.73,7.73,0,0,0-1.41,6.2l.11.48a7.75,7.75,0,0,0,4,4.92,4,4,0,0,1,1.88,5.28,7.75,7.75,0,0,0,5.44,10.86,4,4,0,0,1,3.15,4.62,7.72,7.72,0,0,0,1.67,6.38l.19.21a7.66,7.66,0,0,0,5.72,2.57,8.27,8.27,0,0,0,1.3-.12,8.19,8.19,0,0,0,1.17-.26,14.5,14.5,0,0,1,2.2-.82l.14,0,.16,0a3.91,3.91,0,0,1,.68-.06,6.13,6.13,0,0,1,2.37.57,7,7,0,0,0,2.75.65,4.6,4.6,0,0,0,.84-.08c1.6-.23,2.9-1.26,5-2.37a31.28,31.28,0,0,1,8.9-3.09,32,32,0,0,1,20.45,3.13c4.34,2.26,6.87,4.82,8.31,7.29l.14-.13.06.09a19.49,19.49,0,0,1,10.44-5.91,22.46,22.46,0,0,1,4.23-.44h.21a20.07,20.07,0,0,1,14.87,6.39,1.1,1.1,0,0,1,.09-.14l.1.1c1.44-2.47,4-5,8.32-7.29A32.14,32.14,0,0,1,1745.7,482.42Zm301.56,100.46c-9.82-6.79-22.92-11.23-38.23-11.23-38.75,0-65,28-65,62.5s26.25,62.5,65,62.5c15.31,0,28.41-4.45,38.23-11.24a4,4,0,0,0,1.77-3.32V652.94a1.5,1.5,0,0,0-2.21-1.32c-5.89,3.14-22.6,11.28-37.79,11.28-18.75,0-30-12.5-30-28.75s11.25-28.75,30-28.75c14.9,0,30.68,7.48,37.07,10.86a2,2,0,0,0,2.93-1.77V586.2A4,4,0,0,0,2047.26,582.88ZM1894.53,656.4a19,19,0,1,0,19,19A19,19,0,0,0,1894.53,656.4ZM2197,634.15c0,35-27.5,62.5-62.5,62.5s-62.5-27.5-62.5-62.5,27.5-62.5,62.5-62.5S2197,599.15,2197,634.15Zm-35,0c0-16.25-11.25-28.75-27.5-28.75s-27.5,12.5-27.5,28.75,11.25,28.75,27.5,28.75S2162,650.4,2162,634.15Zm206.24-62.5c-13.75,0-28.75,6.25-40,16.25-8.75-10-22.5-16.25-42.5-16.25-11.25,0-20,3.75-28.75,8.75v-2.87a2.12,2.12,0,0,0-2.13-2.13h-30.73a2.13,2.13,0,0,0-2.14,2.13V690.76a2.15,2.15,0,0,0,2.14,2.14h30.73a2.15,2.15,0,0,0,1.51-.63,2.13,2.13,0,0,0,.62-1.51V618.32a1,1,0,0,1,.3-.72c7.4-7.34,14.85-12.2,25.95-12.2,11.25,0,21.25,7.5,21.25,27.5v57.86a2.15,2.15,0,0,0,2.14,2.14h30.73a2.15,2.15,0,0,0,1.51-.63,2.13,2.13,0,0,0,.62-1.51V618.32a1,1,0,0,1,.3-.72c7.4-7.34,14.85-12.2,25.95-12.2,11.25,0,21.25,7.5,21.25,27.5v57.86a2.15,2.15,0,0,0,2.14,2.14h30.73a2.15,2.15,0,0,0,1.51-.63,2.13,2.13,0,0,0,.62-1.51V626.65C2422,592.9,2405.77,571.65,2368.27,571.65Z"/></svg>